<svg xmlns:svg="http://www.w3.org/2000/svg" xmlns="http://www.w3.org/2000/svg" xml:space="preserve" enable-background="new 0 0 340.157 170.079" viewBox="0 0 90.3 75.7" height="75.7" width="90.3" y="0" x="0" version="1.1"><style>.s0{fill:#fff;}</style><path d="m10.2 35.6-3.4-3.2c2.9-9.2 8.1-16.5 14.8-22.6l4.6 0.9c-8.2 6.8-13.9 14.9-16 24.9zM46 60.4l9.5 4.9c12.4-9 19.6-20.8 17.7-37.8l-8.6-4.6c2.9 18.1-6.1 31.2-18.5 37.5zM65 69.8l7.5 3.9c11.1-10.8 15.4-23.6 15.8-37.5l-7.7-5c0.8 16.5-4.9 29.1-15.5 38.7zM4.3 30.4 2 28.4c3.4-8 7.5-14.8 12.8-19.7l3.6 0.7c-5.9 4.8-10.5 12-14.1 21zM33.8 7.7l4-4.9c9.1-2.2 17.6 0.1 25.6 6.8l-2.9 6c-7-7.3-15.6-10.6-26.8-7.9zM44.4 11.9c-3.5-0.9-7.3-0.6-10.9 0.6-6.9 2.2-13.2 7.8-16.3 15.1-1.2 2.8-1.8 5.7-1.9 8.4l0 1c0.2 7.5 4.5 13.8 11.9 15.6 2 0.5 4.1 0.6 6.3 0.4 8.5-0.8 17.1-7.2 20.9-16.1 1.2-2.8 1.8-5.7 1.9-8.4l0-1c-0.2-7.5-4.6-13.8-11.9-15.6zm-5.6 18.2c-1 2.3-3.1 4-5.2 4.5-0.8 0.2-1.6 0.2-2.4 0-2.9-0.7-4.1-3.9-2.8-7 1-2.3 3-4 5.2-4.4 0.8-0.2 1.6-0.2 2.4 0 2.9 0.7 4.2 3.9 2.8 7zM35.1 63.3l-4.7 8.6c-12.1-3.1-22-8.5-23.7-22l3.3-7.6c2.1 12.3 11.2 18.7 25.2 21z" fill="#fff"/></svg>
