<svg xmlns="http://www.w3.org/2000/svg" width="340.157" height="170.079" viewBox="0 0 340.157 170.079"><path fill="#2E3E7D" d="M1116 0h340.157v170.079H1116z"/><path fill="#24549D" d="M1496 0h340.157v170.079H1496z"/><path d="M1868.512 0h340.157v170.079h-340.157zM404.063 139.955v-20.169h5.74c1.744 0 3.127.426 4.147 1.278 1.022.855 1.534 1.966 1.534 3.335 0 1.146-.311 2.138-.93 2.981-.618.845-1.471 1.443-2.559 1.801v.054c1.359.161 2.447.675 3.263 1.543.817.865 1.224 1.994 1.224 3.381 0 1.727-.619 3.124-1.855 4.192-1.238 1.067-2.799 1.604-4.684 1.604h-5.88zm2.363-18.032v6.514h2.42c1.294 0 2.311-.313 3.052-.935.741-.626 1.112-1.504 1.112-2.638 0-1.961-1.291-2.941-3.869-2.941h-2.715zm0 8.638v7.257h3.207c1.387 0 2.465-.328 3.229-.985.764-.656 1.146-1.556 1.146-2.701 0-2.381-1.623-3.57-4.867-3.57h-2.715zm24.046 9.394h-2.307v-2.278h-.056c-.958 1.742-2.439 2.615-4.445 2.615-3.432 0-5.146-2.044-5.146-6.133v-8.605h2.291v8.241c0 3.037 1.164 4.557 3.488 4.557 1.125 0 2.051-.415 2.777-1.245.728-.831 1.091-1.914 1.091-3.256v-8.297h2.307v14.401zm2.342-.52v-2.475c1.256.929 2.639 1.392 4.148 1.392 2.025 0 3.039-.675 3.039-2.025 0-.385-.088-.71-.26-.979a2.611 2.611 0 00-.703-.708 5.492 5.492 0 00-1.041-.557c-.4-.163-.828-.335-1.287-.511a16.826 16.826 0 01-1.682-.769 5.104 5.104 0 01-1.21-.871 3.252 3.252 0 01-.73-1.104c-.165-.411-.247-.896-.247-1.449 0-.675.154-1.273.465-1.793a4.14 4.14 0 011.237-1.309 5.766 5.766 0 011.766-.794 7.75 7.75 0 012.046-.268c1.247 0 2.363.215 3.348.647v2.333c-1.06-.693-2.279-1.041-3.657-1.041-.431 0-.819.05-1.167.151a2.789 2.789 0 00-.893.413c-.248.177-.441.392-.577.64s-.204.521-.204.823c0 .375.068.689.204.94.136.254.335.481.598.678s.581.375.956.532c.375.16.802.333 1.281.521.637.245 1.209.496 1.715.754s.938.547 1.294.871c.356.323.631.695.823 1.119.191.421.289.923.289 1.504 0 .714-.158 1.332-.473 1.857a4.043 4.043 0 01-1.258 1.307 5.736 5.736 0 01-1.814.774 8.908 8.908 0 01-2.152.253c-1.48.001-2.767-.285-3.854-.856zm13.124-17.539a1.47 1.47 0 01-1.055-.423c-.289-.279-.436-.637-.436-1.069 0-.431.146-.789.436-1.075.291-.286.643-.43 1.055-.43.422 0 .781.144 1.077.43s.442.645.442 1.075c0 .413-.146.764-.442 1.056a1.48 1.48 0 01-1.077.436zm1.125 18.059h-2.308v-14.401h2.308v14.401zm15.185 0h-2.307v-8.214c0-3.057-1.117-4.587-3.348-4.587-1.153 0-2.107.436-2.862 1.304-.755.865-1.132 1.961-1.132 3.283v8.214h-2.307v-14.401h2.307v2.391h.057c1.087-1.818 2.662-2.729 4.724-2.729 1.576 0 2.78.509 3.615 1.526.833 1.018 1.253 2.487 1.253 4.409v8.804zm14.653-6.626h-10.17c.038 1.604.471 2.843 1.295 3.715s1.96 1.308 3.403 1.308c1.622 0 3.113-.534 4.473-1.604v2.166c-1.266.918-2.938 1.378-5.02 1.378-2.037 0-3.635-.655-4.797-1.962-1.164-1.307-1.744-3.146-1.744-5.52 0-2.24.635-4.068 1.906-5.478 1.27-1.412 2.848-2.118 4.732-2.118 1.883 0 3.342.609 4.373 1.827 1.032 1.221 1.548 2.914 1.548 5.078v1.21zm-2.362-1.954c-.01-1.331-.332-2.366-.964-3.109-.632-.739-1.511-1.111-2.637-1.111a3.729 3.729 0 00-2.771 1.168c-.759.78-1.228 1.797-1.405 3.053h7.777zm4.26 8.06v-2.475c1.255.929 2.638 1.392 4.147 1.392 2.025 0 3.038-.675 3.038-2.025 0-.385-.087-.71-.261-.979a2.593 2.593 0 00-.702-.708 5.492 5.492 0 00-1.041-.557 61.227 61.227 0 00-1.287-.511 16.777 16.777 0 01-1.68-.769 5.09 5.09 0 01-1.211-.871 3.223 3.223 0 01-.73-1.104c-.165-.411-.246-.896-.246-1.449 0-.675.154-1.273.463-1.793.31-.521.723-.957 1.236-1.309a5.767 5.767 0 011.768-.794 7.738 7.738 0 012.045-.268c1.248 0 2.363.215 3.348.647v2.333c-1.059-.693-2.278-1.041-3.656-1.041-.432 0-.821.05-1.168.151a2.81 2.81 0 00-.893.413 1.91 1.91 0 00-.578.64 1.689 1.689 0 00-.202.823c0 .375.067.689.202.94.137.254.336.481.6.678.262.196.58.375.956.532.374.16.802.333 1.28.521.637.245 1.209.496 1.715.754.507.258.938.547 1.295.871.355.323.629.695.821 1.119.194.421.289.923.289 1.504 0 .714-.157 1.332-.471 1.857a4.06 4.06 0 01-1.26 1.307 5.7 5.7 0 01-1.813.774 8.888 8.888 0 01-2.151.253c-1.483.001-2.767-.285-3.853-.856zm10.781 0v-2.475c1.256.929 2.639 1.392 4.148 1.392 2.025 0 3.037-.675 3.037-2.025 0-.385-.087-.71-.26-.979a2.611 2.611 0 00-.703-.708 5.432 5.432 0 00-1.041-.557 63.102 63.102 0 00-1.285-.511c-.641-.256-1.2-.51-1.683-.769a5.07 5.07 0 01-1.208-.871 3.243 3.243 0 01-.732-1.104c-.164-.411-.247-.896-.247-1.449 0-.675.154-1.273.465-1.793a4.14 4.14 0 011.237-1.309 5.766 5.766 0 011.766-.794 7.753 7.753 0 012.047-.268c1.248 0 2.363.215 3.348.647v2.333c-1.06-.693-2.28-1.041-3.658-1.041-.432 0-.82.05-1.166.151a2.81 2.81 0 00-.895.413c-.248.177-.439.392-.576.64s-.204.521-.204.823c0 .375.067.689.204.94.137.254.334.481.598.678s.58.375.957.532c.375.16.803.333 1.278.521.639.245 1.21.496 1.718.754.504.258.938.547 1.293.871.357.323.631.695.822 1.119.192.421.289.923.289 1.504 0 .714-.157 1.332-.471 1.857a4.04 4.04 0 01-1.26 1.307 5.72 5.72 0 01-1.813.774 8.9 8.9 0 01-2.151.253c-1.485.001-2.767-.285-3.854-.856zm22.742-19.649v2.025h-1.966v16.119h1.966v2.024h-6.3v-2.024h1.97v-16.119h-1.97v-2.025h6.3zm15.981 2.137h-5.82v18.032h-2.364v-18.032h-5.808v-2.137h13.992v2.137zm-.313 18.341c-.433 0-.801-.154-1.104-.463a1.527 1.527 0 01-.458-1.11c0-.433.152-.807.458-1.12a1.485 1.485 0 011.104-.472c.439 0 .815.159 1.124.472.31.313.464.688.464 1.12 0 .43-.154.8-.464 1.11a1.533 1.533 0 01-1.124.463zm32.659-.309h-2.615l-2.138-5.655h-8.551l-2.012 5.655h-2.63l7.734-20.169h2.448l7.764 20.169zm-5.526-7.778l-3.164-8.593c-.104-.281-.207-.731-.311-1.349h-.056c-.094.571-.201 1.02-.323 1.349l-3.137 8.593h6.991zm9.623 5.696h-.057v2.082h-2.305v-21.323h2.305v9.451h.057c1.135-1.912 2.795-2.868 4.979-2.868 1.847 0 3.294.645 4.339 1.934 1.045 1.29 1.568 3.016 1.568 5.183 0 2.409-.587 4.341-1.758 5.787-1.172 1.449-2.775 2.174-4.811 2.174-1.903-.001-3.341-.808-4.317-2.42zm-.057-5.809v2.012c0 1.192.388 2.199 1.16 3.03.775.83 1.757 1.245 2.947 1.245 1.398 0 2.491-.534 3.284-1.604.792-1.068 1.188-2.556 1.188-4.46 0-1.602-.37-2.858-1.111-3.767-.741-.91-1.744-1.367-3.009-1.367-1.342 0-2.421.469-3.235 1.4-.815.933-1.224 2.104-1.224 3.511zm25.293 1.265h-10.168c.037 1.604.469 2.843 1.295 3.715.824.872 1.959 1.308 3.401 1.308 1.623 0 3.114-.534 4.474-1.604v2.166c-1.266.918-2.939 1.378-5.021 1.378-2.034 0-3.633-.655-4.797-1.962-1.161-1.307-1.742-3.146-1.742-5.52 0-2.24.634-4.068 1.904-5.478 1.271-1.412 2.849-2.118 4.733-2.118s3.342.609 4.375 1.827c1.03 1.221 1.546 2.914 1.546 5.078v1.21zm-2.363-1.954c-.009-1.331-.33-2.366-.963-3.109-.633-.739-1.512-1.111-2.637-1.111-1.088 0-2.012.391-2.77 1.168-.76.78-1.23 1.797-1.407 3.053h7.777zm12.451-3.488c-.402-.309-.982-.463-1.742-.463-.984 0-1.809.463-2.469 1.392-.661.929-.992 2.193-.992 3.798v7.342h-2.306v-14.401h2.306v2.968h.056c.328-1.014.831-1.803 1.505-2.372.675-.567 1.43-.85 2.265-.85.601 0 1.061.066 1.378.196v2.39zm16.465 0c-.402-.309-.984-.463-1.744-.463-.984 0-1.809.463-2.469 1.392s-.99 2.193-.99 3.798v7.342h-2.309v-14.401h2.309v2.968h.055c.328-1.014.83-1.803 1.506-2.372.674-.567 1.43-.85 2.264-.85.6 0 1.059.066 1.379.196v2.39zm2.854-5.991c-.414 0-.766-.143-1.055-.423-.293-.279-.438-.637-.438-1.069 0-.431.145-.789.438-1.075.289-.286.641-.43 1.055-.43.422 0 .779.144 1.074.43s.443.645.443 1.075c0 .413-.148.764-.443 1.056a1.47 1.47 0 01-1.074.436zm1.125 18.059h-2.307v-14.401h2.307v14.401zm13.322-.661c-1.105.664-2.42.998-3.938.998-2.055 0-3.713-.669-4.975-2.004-1.26-1.336-1.891-3.068-1.891-5.198 0-2.37.68-4.276 2.041-5.715 1.357-1.44 3.172-2.16 5.441-2.16 1.268 0 2.383.234 3.35.702v2.362c-1.072-.748-2.213-1.125-3.434-1.125-1.473 0-2.678.529-3.621 1.584-.941 1.054-1.414 2.439-1.414 4.155 0 1.689.443 3.02 1.33 3.996.885.975 2.074 1.462 3.564 1.462 1.256 0 2.439-.416 3.545-1.253v2.196zm14.117.661h-2.307v-8.299c0-3.001-1.115-4.502-3.348-4.502-1.123 0-2.072.436-2.84 1.304-.77.865-1.152 1.979-1.152 3.34v8.157h-2.309v-21.323h2.309v9.313h.055c1.105-1.818 2.682-2.729 4.727-2.729 3.242 0 4.865 1.954 4.865 5.865v8.874zm9.693-.14c-.543.3-1.262.448-2.152.448-2.523 0-3.785-1.405-3.785-4.218v-8.524h-2.475v-1.968h2.475v-3.519l2.309-.744v4.263h3.629v1.968h-3.629v8.116c0 .965.162 1.654.49 2.067s.873.619 1.633.619c.58 0 1.084-.16 1.506-.479v1.971zm3.317-17.919a1.47 1.47 0 01-1.055-.423c-.291-.279-.436-.637-.436-1.069 0-.431.145-.789.436-1.075s.643-.43 1.055-.43c.422 0 .781.144 1.076.43s.443.645.443 1.075c0 .413-.148.764-.443 1.056a1.475 1.475 0 01-1.076.436zm1.125 18.059h-2.307v-14.401h2.307v14.401zm15.859-1.153c0 5.289-2.531 7.932-7.596 7.932-1.781 0-3.336-.338-4.668-1.013v-2.307c1.623.9 3.168 1.351 4.643 1.351 3.541 0 5.314-1.885 5.314-5.654v-1.576h-.057c-1.096 1.84-2.746 2.758-4.949 2.758-1.791 0-3.234-.64-4.326-1.92-1.092-1.279-1.639-2.998-1.639-5.155 0-2.445.59-4.393 1.766-5.836 1.178-1.442 2.787-2.166 4.83-2.166 1.943 0 3.381.777 4.318 2.336h.057v-1.997h2.307v13.247zm-2.306-5.361v-2.123c0-1.142-.387-2.123-1.16-2.938s-1.736-1.226-2.891-1.226c-1.426 0-2.541.521-3.346 1.555-.809 1.036-1.211 2.487-1.211 4.354 0 1.604.387 2.887 1.16 3.849.773.959 1.797 1.44 3.072 1.44 1.295 0 2.348-.459 3.158-1.378.813-.92 1.218-2.096 1.218-3.533zm6.754 6.823c-.43 0-.799-.154-1.102-.463a1.524 1.524 0 01-.459-1.11c0-.433.152-.807.459-1.12a1.482 1.482 0 011.102-.472c.441 0 .818.159 1.127.472.309.313.463.688.463 1.12 0 .43-.154.8-.463 1.11a1.54 1.54 0 01-1.127.463z"/><path d="M411.816 56.671l-3.445-3.155c2.895-9.164 8.08-16.493 14.814-22.563l4.592.862c-8.191 6.841-13.884 14.944-15.961 24.856zm35.81 24.881l9.492 4.881c12.405-9.031 19.626-20.753 17.685-37.797l-8.633-4.614c2.893 18.059-6.115 31.216-18.544 37.53zm18.964 9.34l7.482 3.885c11.148-10.819 15.41-23.623 15.809-37.53l-7.75-5.034c.84 16.513-4.879 29.074-15.541 38.679zm-60.668-39.387l-2.297-2.009c3.354-8.013 7.507-14.769 12.805-19.692l3.576.707c-5.916 4.767-10.464 12.008-14.084 20.994zm29.473-22.716l4.039-4.88c9.098-2.163 17.618.088 25.588 6.756l-2.871 6.026c-6.954-7.306-15.608-10.574-26.756-7.902zm10.64 4.26c-3.51-.884-7.264-.617-10.861.551-6.867 2.232-13.181 7.772-16.271 15.124-1.191 2.847-1.787 5.718-1.854 8.413v.97c.176 7.508 4.547 13.755 11.875 15.587 2.032.507 4.132.64 6.25.44 8.521-.838 17.087-7.152 20.861-16.116 1.215-2.847 1.813-5.695 1.877-8.411v-.971c-.177-7.506-4.57-13.754-11.877-15.587zm-5.629 18.191c-.973 2.319-3.07 3.997-5.232 4.46-.817.154-1.635.177-2.407-.021-2.892-.729-4.147-3.886-2.827-7.043.973-2.297 3.048-3.973 5.234-4.437a5.187 5.187 0 012.406.021c2.893.707 4.15 3.886 2.826 7.02zm-3.709 33.183l-4.746 8.632c-12.121-3.113-21.967-8.5-23.734-21.988l3.312-7.64c2.075 12.297 11.216 18.678 25.168 20.996z" fill="#24549D"/><path d="M521.781 93.409h-6.755V44.043h-6.204l-.043-6.533 13.002-.023zm37.775-18.945v-3.662c0-3.203-.396-5.917-1.171-8.125-.75-2.229-1.854-4.107-3.289-5.631-1.436-1.521-3.111-2.671-5.032-3.376-1.923-.729-4.105-1.083-6.603-1.083-.375 0-.749.022-1.104.044-5.032.223-9.14 2.164-12.339 5.762-3.4 3.863-5.124 9.075-5.124 15.611 0 6.644 1.767 11.741 5.279 15.364 3.022 3.068 7.085 4.836 12.184 5.299a37.64 37.64 0 002.716.109c1.611 0 2.979-.109 4.039-.284 1.063-.2 2.253-.487 3.576-.84.93-.243 1.99-.619 3.158-1.085 1.172-.463 2.166-.859 2.938-1.168v-7.374h-.398a16.74 16.74 0 01-2.074 1.457c-.841.529-1.855 1.037-3.09 1.588-1.148.531-2.452.972-3.865 1.304a19.104 19.104 0 01-6.999.33c-2.913-.44-5.274-1.611-7.085-3.53-2.341-2.451-3.533-6.028-3.533-10.71h27.816zm-27.818-5.165c.154-1.7.484-3.178 1.014-4.48a11.158 11.158 0 012.298-3.488 11.07 11.07 0 013.421-2.362c1.104-.463 2.385-.729 3.886-.796h.708c1.811 0 3.334.242 4.57.774a7.612 7.612 0 013.046 2.317c.706.904 1.259 2.009 1.634 3.334.396 1.325.617 2.893.661 4.701h-21.238zm62.856-15.587l-15.125 40.137h-6.071l-15.013-40.137h7.308l10.971 30.909 10.886-30.909zm8.676 40.137h-6.757V53.712h6.757v40.137zm.484-46.87h-7.705v-6.998h7.705v6.998zm30.642 6.733l-.373 1.722c-1.547-.903-3.07-1.609-4.594-2.094-1.502-.486-3.313-.753-5.385-.753-2.209 0-4.352.466-6.404 1.413-2.076.929-3.842 2.251-5.365 3.975-1.568 1.81-2.85 3.994-3.775 6.557-.928 2.584-1.389 5.541-1.389 8.873 0 6.359 1.348 11.24 4.059 14.638 2.717 3.4 6.359 5.101 10.93 5.101.664 0 1.324-.021 1.945-.066 1.787-.154 3.332-.509 4.613-1.06 1.744-.75 3.529-1.921 5.365-3.509v3.53c0 1.658-.178 3.136-.467 4.417a8.776 8.776 0 01-1.631 3.422c-.795.972-1.945 1.743-3.4 2.296-1.258.484-2.738.749-4.48.817-.268 0-.531.021-.818.021a20.98 20.98 0 01-3.445-.286 67.047 67.047 0 01-3.443-.773 39.09 39.09 0 01-3.025-.906c-.883-.331-1.564-.573-2.008-.772h-.354v7.043c1.766.506 3.664.948 5.717 1.259 2.055.309 4.063.463 6.029.463.461 0 .904-.022 1.348-.022 5.428-.22 9.512-1.811 12.273-4.767 2.98-3.18 4.457-8.17 4.457-14.97V53.712h-6.38zm-.373 29.23c-1.504 1.237-3.158 2.231-5.035 2.915a15.582 15.582 0 01-4.943 1.038h-.443c-3.354 0-5.783-1.171-7.285-3.489-1.502-2.317-2.254-5.718-2.254-10.156 0-4.701.994-8.302 2.961-10.817 1.742-2.229 4.104-3.486 7.021-3.731.352-.021.703-.042 1.059-.042 1.412 0 2.824.177 4.26.529 1.436.354 2.979.929 4.66 1.745v22.008zm41.35-24.792c-3.27-3.709-7.617-5.563-13.027-5.563h-.043c-5.363.022-9.691 1.876-12.982 5.585-3.289 3.709-4.943 8.92-4.943 15.611 0 6.533 1.59 11.678 4.791 15.475s7.572 5.697 13.135 5.697h.043c5.41 0 9.758-1.834 13.027-5.521 3.244-3.664 4.879-8.896 4.879-15.65-.001-6.715-1.636-11.945-4.88-15.634zm-4.947 27.157c-1.896 2.537-4.613 3.818-8.08 3.818h-.043c-3.488 0-6.205-1.301-8.104-3.885-1.898-2.606-2.846-6.426-2.846-11.457 0-5.188.947-9.054 2.846-11.569 1.898-2.518 4.615-3.776 8.104-3.8h.043c3.488 0 6.205 1.262 8.08 3.8 1.9 2.516 2.848 6.381 2.848 11.569-.001 5.12-.948 8.961-2.848 11.524zm10.908-49.433c-1.148-1.146-2.541-1.721-4.152-1.721h-.021c-1.613 0-3.002.574-4.15 1.721-1.148 1.127-1.723 2.518-1.723 4.151 0 1.612.574 3.003 1.723 4.15s2.537 1.722 4.15 1.722h.021c1.611 0 3.004-.596 4.152-1.722 1.146-1.147 1.721-2.538 1.721-4.15 0-1.633-.575-3.024-1.721-4.151zm-.555 7.772c-.992.993-2.205 1.502-3.598 1.502-1.412 0-2.604-.509-3.598-1.502-.992-.992-1.502-2.207-1.502-3.62 0-1.436.51-2.628 1.502-3.643.994-.994 2.186-1.479 3.598-1.479 1.393 0 2.605.485 3.598 1.479.996 1.015 1.48 2.207 1.48 3.643.001 1.412-.484 2.627-1.48 3.62z"/><path d="M679.168 39.604c.266-.285.379-.661.379-1.101 0-.354-.049-.62-.178-.842-.111-.221-.311-.396-.598-.552a1.64 1.64 0 00-.75-.265c-.199-.042-.486-.042-.84-.042-.043-.024-.109-.024-.154-.024h-1.898v6.226h1.127V40.6h.816l.109.108 1.832 2.296h1.527l-2.344-2.715c.4-.176.73-.396.972-.685zm-1.654.069c-.111.022-.221.044-.332.044-.088.021-.174.021-.262.021h-.664v-2.097h.925c.154 0 .287.021.398.044.131.022.264.066.373.131.135.088.223.2.289.312.045.131.066.264.066.44 0 .22-.021.398-.066.531a.814.814 0 01-.264.351c-.112.113-.266.179-.463.223zM30.779 139.955v-20.169h5.74c1.744 0 3.127.426 4.147 1.278 1.022.855 1.534 1.966 1.534 3.335 0 1.146-.311 2.138-.93 2.981-.618.845-1.471 1.443-2.559 1.801v.054c1.359.161 2.447.675 3.263 1.543.817.865 1.224 1.994 1.224 3.381 0 1.727-.619 3.124-1.855 4.192-1.238 1.067-2.799 1.604-4.684 1.604h-5.88zm2.364-18.032v6.514h2.42c1.294 0 2.311-.313 3.052-.935.741-.626 1.112-1.504 1.112-2.638 0-1.961-1.291-2.941-3.869-2.941h-2.715zm0 8.638v7.257h3.207c1.387 0 2.465-.328 3.229-.985.764-.656 1.146-1.556 1.146-2.701 0-2.381-1.623-3.57-4.867-3.57h-2.715zm24.045 9.394h-2.307v-2.278h-.056c-.958 1.742-2.439 2.615-4.445 2.615-3.432 0-5.146-2.044-5.146-6.133v-8.605h2.291v8.241c0 3.037 1.164 4.557 3.488 4.557 1.125 0 2.051-.415 2.777-1.245.728-.831 1.091-1.914 1.091-3.256v-8.297h2.307v14.401zm2.343-.52v-2.475c1.256.929 2.639 1.392 4.148 1.392 2.025 0 3.039-.675 3.039-2.025 0-.385-.088-.71-.26-.979a2.611 2.611 0 00-.703-.708 5.492 5.492 0 00-1.041-.557c-.4-.163-.828-.335-1.287-.511a16.826 16.826 0 01-1.682-.769 5.104 5.104 0 01-1.21-.871 3.252 3.252 0 01-.73-1.104c-.165-.411-.247-.896-.247-1.449 0-.675.154-1.273.465-1.793a4.14 4.14 0 011.237-1.309 5.766 5.766 0 011.766-.794 7.75 7.75 0 012.046-.268c1.247 0 2.363.215 3.348.647v2.333c-1.06-.693-2.279-1.041-3.657-1.041-.431 0-.819.05-1.167.151a2.789 2.789 0 00-.893.413c-.248.177-.441.392-.577.64s-.204.521-.204.823c0 .375.068.689.204.94.136.254.335.481.598.678s.581.375.956.532c.375.16.802.333 1.281.521.637.245 1.209.496 1.715.754s.938.547 1.294.871c.356.323.631.695.823 1.119.191.421.289.923.289 1.504 0 .714-.158 1.332-.473 1.857a4.043 4.043 0 01-1.258 1.307 5.736 5.736 0 01-1.814.774 8.908 8.908 0 01-2.152.253c-1.481.001-2.767-.285-3.854-.856zm13.123-17.539a1.47 1.47 0 01-1.055-.423c-.289-.279-.436-.637-.436-1.069 0-.431.146-.789.436-1.075.291-.286.643-.43 1.055-.43.422 0 .781.144 1.077.43s.442.645.442 1.075c0 .413-.146.764-.442 1.056a1.477 1.477 0 01-1.077.436zm1.126 18.059h-2.308v-14.401h2.308v14.401zm15.185 0h-2.307v-8.214c0-3.057-1.117-4.587-3.348-4.587-1.153 0-2.107.436-2.862 1.304-.755.865-1.132 1.961-1.132 3.283v8.214H77.01v-14.401h2.307v2.391h.057c1.087-1.818 2.662-2.729 4.724-2.729 1.576 0 2.78.509 3.615 1.526.833 1.018 1.253 2.487 1.253 4.409v8.804zm14.653-6.626h-10.17c.038 1.604.471 2.843 1.295 3.715s1.96 1.308 3.403 1.308c1.622 0 3.113-.534 4.473-1.604v2.166c-1.266.918-2.938 1.378-5.02 1.378-2.037 0-3.635-.655-4.797-1.962-1.164-1.307-1.744-3.146-1.744-5.52 0-2.24.635-4.068 1.906-5.478 1.27-1.412 2.848-2.118 4.732-2.118 1.883 0 3.342.609 4.373 1.827 1.032 1.221 1.548 2.914 1.548 5.078v1.21zm-2.362-1.954c-.01-1.331-.332-2.366-.964-3.109-.632-.739-1.511-1.111-2.637-1.111a3.729 3.729 0 00-2.771 1.168c-.759.78-1.228 1.797-1.405 3.053h7.777zm4.26 8.06v-2.475c1.255.929 2.638 1.392 4.147 1.392 2.025 0 3.038-.675 3.038-2.025 0-.385-.087-.71-.261-.979a2.593 2.593 0 00-.702-.708 5.492 5.492 0 00-1.041-.557 61.227 61.227 0 00-1.287-.511 16.777 16.777 0 01-1.68-.769 5.09 5.09 0 01-1.211-.871 3.223 3.223 0 01-.73-1.104c-.165-.411-.246-.896-.246-1.449 0-.675.154-1.273.463-1.793.31-.521.723-.957 1.236-1.309a5.767 5.767 0 011.768-.794 7.738 7.738 0 012.045-.268c1.248 0 2.363.215 3.348.647v2.333c-1.059-.693-2.278-1.041-3.656-1.041-.432 0-.821.05-1.168.151a2.81 2.81 0 00-.893.413 1.91 1.91 0 00-.578.64 1.689 1.689 0 00-.202.823c0 .375.067.689.202.94.137.254.336.481.6.678.262.196.58.375.956.532.374.16.802.333 1.28.521.637.245 1.209.496 1.715.754.507.258.938.547 1.295.871.355.323.629.695.821 1.119.194.421.289.923.289 1.504 0 .714-.157 1.332-.471 1.857a4.06 4.06 0 01-1.26 1.307 5.7 5.7 0 01-1.813.774 8.888 8.888 0 01-2.151.253c-1.483.001-2.767-.285-3.853-.856zm10.781 0v-2.475c1.256.929 2.639 1.392 4.148 1.392 2.025 0 3.037-.675 3.037-2.025 0-.385-.087-.71-.26-.979a2.611 2.611 0 00-.703-.708 5.432 5.432 0 00-1.041-.557 63.102 63.102 0 00-1.285-.511c-.641-.256-1.2-.51-1.683-.769a5.07 5.07 0 01-1.208-.871 3.243 3.243 0 01-.732-1.104c-.164-.411-.247-.896-.247-1.449 0-.675.154-1.273.465-1.793a4.14 4.14 0 011.237-1.309 5.766 5.766 0 011.766-.794 7.753 7.753 0 012.047-.268c1.248 0 2.363.215 3.348.647v2.333c-1.06-.693-2.28-1.041-3.658-1.041-.432 0-.82.05-1.166.151a2.81 2.81 0 00-.895.413c-.248.177-.439.392-.576.64s-.204.521-.204.823c0 .375.067.689.204.94.137.254.334.481.598.678s.58.375.957.532c.375.16.803.333 1.278.521.639.245 1.21.496 1.718.754.504.258.938.547 1.293.871.357.323.631.695.822 1.119.192.421.289.923.289 1.504 0 .714-.157 1.332-.471 1.857a4.04 4.04 0 01-1.26 1.307 5.72 5.72 0 01-1.813.774 8.9 8.9 0 01-2.151.253c-1.485.001-2.767-.285-3.854-.856zm22.742-19.649v2.025h-1.966v16.119h1.966v2.024h-6.3v-2.024h1.97v-16.119h-1.97v-2.025h6.3zm15.981 2.137h-5.82v18.032h-2.364v-18.032h-5.808v-2.137h13.992v2.137zm-.313 18.341c-.433 0-.801-.154-1.104-.463a1.527 1.527 0 01-.458-1.11c0-.433.152-.807.458-1.12a1.485 1.485 0 011.104-.472c.439 0 .815.159 1.124.472.31.313.464.688.464 1.12 0 .43-.154.8-.464 1.11a1.536 1.536 0 01-1.124.463zm32.659-.309h-2.615l-2.138-5.655h-8.551l-2.012 5.655h-2.63l7.734-20.169h2.448l7.764 20.169zm-5.526-7.778l-3.164-8.593c-.104-.281-.207-.731-.311-1.349h-.056c-.094.571-.201 1.02-.323 1.349l-3.137 8.593h6.991zm9.623 5.696h-.057v2.082h-2.305v-21.323h2.305v9.451h.057c1.135-1.912 2.795-2.868 4.979-2.868 1.847 0 3.294.645 4.339 1.934 1.045 1.29 1.568 3.016 1.568 5.183 0 2.409-.587 4.341-1.758 5.787-1.172 1.449-2.775 2.174-4.811 2.174-1.903-.001-3.342-.808-4.317-2.42zm-.057-5.809v2.012c0 1.192.388 2.199 1.16 3.03.775.83 1.757 1.245 2.947 1.245 1.398 0 2.491-.534 3.284-1.604.792-1.068 1.188-2.556 1.188-4.46 0-1.602-.37-2.858-1.111-3.767-.741-.91-1.744-1.367-3.009-1.367-1.342 0-2.421.469-3.235 1.4-.816.933-1.224 2.104-1.224 3.511zm25.293 1.265h-10.168c.037 1.604.469 2.843 1.295 3.715.824.872 1.959 1.308 3.401 1.308 1.623 0 3.114-.534 4.474-1.604v2.166c-1.266.918-2.939 1.378-5.021 1.378-2.034 0-3.633-.655-4.797-1.962-1.161-1.307-1.742-3.146-1.742-5.52 0-2.24.634-4.068 1.904-5.478 1.271-1.412 2.849-2.118 4.733-2.118s3.342.609 4.375 1.827c1.03 1.221 1.546 2.914 1.546 5.078v1.21zm-2.363-1.954c-.009-1.331-.33-2.366-.963-3.109-.633-.739-1.512-1.111-2.637-1.111-1.088 0-2.012.391-2.77 1.168-.76.78-1.23 1.797-1.407 3.053h7.777zm12.451-3.488c-.402-.309-.982-.463-1.742-.463-.984 0-1.809.463-2.469 1.392-.661.929-.992 2.193-.992 3.798v7.342h-2.306v-14.401h2.306v2.968h.056c.328-1.014.831-1.803 1.505-2.372.675-.567 1.43-.85 2.265-.85.601 0 1.061.066 1.378.196v2.39zm16.465 0c-.402-.309-.984-.463-1.744-.463-.984 0-1.809.463-2.469 1.392s-.99 2.193-.99 3.798v7.342h-2.309v-14.401h2.309v2.968h.055c.328-1.014.83-1.803 1.506-2.372.674-.567 1.43-.85 2.264-.85.6 0 1.059.066 1.379.196v2.39zm2.853-5.991c-.414 0-.766-.143-1.055-.423-.293-.279-.438-.637-.438-1.069 0-.431.145-.789.438-1.075.289-.286.641-.43 1.055-.43.422 0 .779.144 1.074.43s.443.645.443 1.075c0 .413-.148.764-.443 1.056a1.469 1.469 0 01-1.074.436zm1.125 18.059h-2.307v-14.401h2.307v14.401zm13.323-.661c-1.105.664-2.42.998-3.938.998-2.055 0-3.713-.669-4.975-2.004-1.26-1.336-1.891-3.068-1.891-5.198 0-2.37.68-4.276 2.041-5.715 1.357-1.44 3.172-2.16 5.441-2.16 1.268 0 2.383.234 3.35.702v2.362c-1.072-.748-2.213-1.125-3.434-1.125-1.473 0-2.678.529-3.621 1.584-.941 1.054-1.414 2.439-1.414 4.155 0 1.689.443 3.02 1.33 3.996.885.975 2.074 1.462 3.564 1.462 1.256 0 2.439-.416 3.545-1.253v2.196zm14.117.661h-2.307v-8.299c0-3.001-1.115-4.502-3.348-4.502-1.123 0-2.072.436-2.84 1.304-.77.865-1.152 1.979-1.152 3.34v8.157h-2.309v-21.323h2.309v9.313h.055c1.105-1.818 2.682-2.729 4.727-2.729 3.242 0 4.865 1.954 4.865 5.865v8.874zm9.693-.14c-.543.3-1.262.448-2.152.448-2.523 0-3.785-1.405-3.785-4.218v-8.524h-2.475v-1.968h2.475v-3.519l2.309-.744v4.263h3.629v1.968h-3.629v8.116c0 .965.162 1.654.49 2.067s.873.619 1.633.619c.58 0 1.084-.16 1.506-.479v1.971zm3.317-17.919a1.47 1.47 0 01-1.055-.423c-.291-.279-.436-.637-.436-1.069 0-.431.145-.789.436-1.075s.643-.43 1.055-.43c.422 0 .781.144 1.076.43s.443.645.443 1.075c0 .413-.148.764-.443 1.056a1.475 1.475 0 01-1.076.436zm1.125 18.059h-2.307v-14.401h2.307v14.401zm15.859-1.153c0 5.289-2.531 7.932-7.596 7.932-1.781 0-3.336-.338-4.668-1.013v-2.307c1.623.9 3.168 1.351 4.643 1.351 3.541 0 5.314-1.885 5.314-5.654v-1.576h-.057c-1.096 1.84-2.746 2.758-4.949 2.758-1.791 0-3.234-.64-4.326-1.92-1.092-1.279-1.639-2.998-1.639-5.155 0-2.445.59-4.393 1.766-5.836 1.178-1.442 2.787-2.166 4.83-2.166 1.943 0 3.381.777 4.318 2.336h.057v-1.997h2.307v13.247zm-2.307-5.361v-2.123c0-1.142-.387-2.123-1.16-2.938s-1.736-1.226-2.891-1.226c-1.426 0-2.541.521-3.346 1.555-.809 1.036-1.211 2.487-1.211 4.354 0 1.604.387 2.887 1.16 3.849.773.959 1.797 1.44 3.072 1.44 1.295 0 2.348-.459 3.158-1.378.814-.92 1.218-2.096 1.218-3.533zm6.754 6.823c-.43 0-.799-.154-1.102-.463a1.524 1.524 0 01-.459-1.11c0-.433.152-.807.459-1.12a1.482 1.482 0 011.102-.472c.441 0 .818.159 1.127.472.309.313.463.688.463 1.12 0 .43-.154.8-.463 1.11a1.536 1.536 0 01-1.127.463z"/><path d="M38.533 56.671l-3.445-3.155c2.895-9.164 8.08-16.493 14.814-22.563l4.592.862c-8.191 6.841-13.885 14.944-15.961 24.856zm35.81 24.881l9.492 4.881c12.405-9.031 19.626-20.753 17.685-37.797l-8.633-4.614c2.892 18.059-6.116 31.216-18.544 37.53zm18.964 9.34l7.482 3.885c11.148-10.819 15.41-23.623 15.809-37.53l-7.75-5.034c.84 16.513-4.879 29.074-15.541 38.679zM32.639 51.505l-2.297-2.009c3.354-8.013 7.507-14.769 12.805-19.692l3.576.707c-5.916 4.767-10.464 12.008-14.084 20.994zm29.472-22.716l4.039-4.88c9.098-2.163 17.618.088 25.588 6.756l-2.871 6.026c-6.953-7.306-15.607-10.574-26.756-7.902zm10.641 4.26c-3.51-.884-7.264-.617-10.861.551-6.867 2.232-13.181 7.772-16.271 15.124-1.191 2.847-1.787 5.718-1.854 8.413v.97c.176 7.508 4.547 13.755 11.875 15.587 2.032.507 4.132.64 6.25.44 8.521-.838 17.087-7.152 20.861-16.116 1.215-2.847 1.813-5.695 1.877-8.411v-.971c-.177-7.506-4.57-13.754-11.877-15.587zM67.123 51.24c-.973 2.319-3.07 3.997-5.232 4.46-.817.154-1.635.177-2.407-.021-2.892-.729-4.147-3.886-2.827-7.043.973-2.297 3.048-3.973 5.234-4.437a5.187 5.187 0 012.406.021c2.892.707 4.15 3.886 2.826 7.02zm-3.709 33.183l-4.746 8.632c-12.121-3.113-21.967-8.5-23.734-21.988l3.312-7.64c2.074 12.297 11.216 18.678 25.168 20.996z" fill="#2E3E7D"/><path d="M148.498 93.409h-6.755V44.043h-6.204l-.043-6.533 13.002-.023zm37.774-18.945v-3.662c0-3.203-.396-5.917-1.171-8.125-.75-2.229-1.854-4.107-3.289-5.631-1.436-1.521-3.111-2.671-5.032-3.376-1.923-.729-4.105-1.083-6.603-1.083-.375 0-.749.022-1.104.044-5.032.223-9.14 2.164-12.339 5.762-3.4 3.863-5.124 9.075-5.124 15.611 0 6.644 1.767 11.741 5.279 15.364 3.022 3.068 7.085 4.836 12.184 5.299a37.64 37.64 0 002.716.109c1.611 0 2.979-.109 4.039-.284 1.063-.2 2.253-.487 3.576-.84.93-.243 1.99-.619 3.158-1.085 1.172-.463 2.166-.859 2.938-1.168v-7.374h-.398a16.74 16.74 0 01-2.074 1.457c-.841.529-1.855 1.037-3.09 1.588-1.148.531-2.452.972-3.865 1.304a19.104 19.104 0 01-6.999.33c-2.913-.44-5.274-1.611-7.085-3.53-2.341-2.451-3.533-6.028-3.533-10.71h27.816zm-27.817-5.165c.154-1.7.484-3.178 1.014-4.48a11.158 11.158 0 012.298-3.488 11.07 11.07 0 013.421-2.362c1.104-.463 2.385-.729 3.886-.796h.708c1.811 0 3.334.242 4.57.774a7.612 7.612 0 013.046 2.317c.706.904 1.259 2.009 1.634 3.334.396 1.325.617 2.893.661 4.701h-21.238zm62.856-15.587l-15.125 40.137h-6.071l-15.013-40.137h7.308l10.971 30.909 10.886-30.909zm8.675 40.137h-6.757V53.712h6.757v40.137zm.485-46.87h-7.705v-6.998h7.705v6.998zm30.642 6.733l-.373 1.722c-1.547-.903-3.07-1.609-4.594-2.094-1.502-.486-3.313-.753-5.385-.753-2.209 0-4.352.466-6.404 1.413-2.076.929-3.842 2.251-5.365 3.975-1.568 1.81-2.85 3.994-3.775 6.557-.928 2.584-1.389 5.541-1.389 8.873 0 6.359 1.348 11.24 4.059 14.638 2.717 3.4 6.359 5.101 10.93 5.101.664 0 1.324-.021 1.945-.066 1.787-.154 3.332-.509 4.613-1.06 1.744-.75 3.529-1.921 5.365-3.509v3.53c0 1.658-.178 3.136-.467 4.417a8.776 8.776 0 01-1.631 3.422c-.795.972-1.945 1.743-3.4 2.296-1.258.484-2.738.749-4.48.817-.268 0-.531.021-.818.021a20.98 20.98 0 01-3.445-.286 67.047 67.047 0 01-3.443-.773 39.09 39.09 0 01-3.025-.906c-.883-.331-1.564-.573-2.008-.772h-.354v7.043c1.766.506 3.664.948 5.717 1.259 2.055.309 4.063.463 6.029.463.461 0 .904-.022 1.348-.022 5.428-.22 9.512-1.811 12.273-4.767 2.98-3.18 4.457-8.17 4.457-14.97V53.712h-6.38zm-.373 29.23c-1.504 1.237-3.158 2.231-5.035 2.915a15.582 15.582 0 01-4.943 1.038h-.443c-3.354 0-5.783-1.171-7.285-3.489-1.502-2.317-2.254-5.718-2.254-10.156 0-4.701.994-8.302 2.961-10.817 1.742-2.229 4.104-3.486 7.021-3.731.352-.021.703-.042 1.059-.042 1.412 0 2.824.177 4.26.529 1.436.354 2.979.929 4.66 1.745v22.008zm41.35-24.792c-3.27-3.709-7.617-5.563-13.027-5.563h-.043c-5.363.022-9.691 1.876-12.982 5.585-3.289 3.709-4.943 8.92-4.943 15.611 0 6.533 1.59 11.678 4.791 15.475s7.572 5.697 13.135 5.697h.043c5.41 0 9.758-1.834 13.027-5.521 3.244-3.664 4.879-8.896 4.879-15.65-.001-6.715-1.636-11.945-4.88-15.634zm-4.947 27.157c-1.896 2.537-4.613 3.818-8.08 3.818h-.043c-3.488 0-6.205-1.301-8.104-3.885-1.898-2.606-2.846-6.426-2.846-11.457 0-5.188.947-9.054 2.846-11.569 1.898-2.518 4.615-3.776 8.104-3.8h.043c3.488 0 6.205 1.262 8.08 3.8 1.9 2.516 2.848 6.381 2.848 11.569-.001 5.12-.948 8.961-2.848 11.524zm10.908-49.433c-1.148-1.146-2.541-1.721-4.152-1.721h-.021c-1.613 0-3.002.574-4.15 1.721-1.148 1.127-1.723 2.518-1.723 4.151 0 1.612.574 3.003 1.723 4.15s2.537 1.722 4.15 1.722h.021c1.611 0 3.004-.596 4.152-1.722 1.146-1.147 1.721-2.538 1.721-4.15-.001-1.633-.575-3.024-1.721-4.151zm-.555 7.772c-.992.993-2.205 1.502-3.598 1.502-1.412 0-2.604-.509-3.598-1.502-.992-.992-1.502-2.207-1.502-3.62 0-1.436.51-2.628 1.502-3.643.994-.994 2.186-1.479 3.598-1.479 1.393 0 2.605.485 3.598 1.479.996 1.015 1.48 2.207 1.48 3.643.001 1.412-.484 2.627-1.48 3.62z"/><path d="M305.885 39.604c.266-.285.379-.661.379-1.101 0-.354-.049-.62-.178-.842-.111-.221-.311-.396-.598-.552a1.64 1.64 0 00-.75-.265c-.199-.042-.486-.042-.84-.042-.043-.024-.109-.024-.154-.024h-1.898v6.226h1.127V40.6h.816l.109.108 1.832 2.296h1.527l-2.344-2.715c.4-.176.73-.396.972-.685zm-1.655.069c-.111.022-.221.044-.332.044-.088.021-.174.021-.262.021h-.664v-2.097h.925c.154 0 .287.021.398.044.131.022.264.066.373.131.135.088.223.2.289.312.045.131.066.264.066.44 0 .22-.021.398-.066.531a.814.814 0 01-.264.351c-.111.113-.265.179-.463.223zm472.549 100.282v-20.169h5.74c1.744 0 3.127.426 4.147 1.278 1.022.855 1.534 1.966 1.534 3.335 0 1.146-.311 2.138-.93 2.981-.618.845-1.471 1.443-2.559 1.801v.054c1.359.161 2.447.675 3.263 1.543.817.865 1.224 1.994 1.224 3.381 0 1.727-.619 3.124-1.855 4.192-1.238 1.067-2.799 1.604-4.684 1.604h-5.88zm2.364-18.032v6.514h2.42c1.294 0 2.311-.313 3.052-.935.741-.626 1.112-1.504 1.112-2.638 0-1.961-1.291-2.941-3.869-2.941h-2.715zm0 8.638v7.257h3.207c1.387 0 2.465-.328 3.229-.985.764-.656 1.146-1.556 1.146-2.701 0-2.381-1.623-3.57-4.867-3.57h-2.715zm24.045 9.394h-2.307v-2.278h-.056c-.958 1.742-2.439 2.615-4.445 2.615-3.432 0-5.146-2.044-5.146-6.133v-8.605h2.291v8.241c0 3.037 1.164 4.557 3.488 4.557 1.125 0 2.051-.415 2.777-1.245.728-.831 1.091-1.914 1.091-3.256v-8.297h2.307v14.401zm2.343-.52v-2.475c1.256.929 2.639 1.392 4.148 1.392 2.025 0 3.039-.675 3.039-2.025 0-.385-.088-.71-.26-.979a2.611 2.611 0 00-.703-.708 5.492 5.492 0 00-1.041-.557c-.4-.163-.828-.335-1.287-.511a16.826 16.826 0 01-1.682-.769 5.104 5.104 0 01-1.21-.871 3.252 3.252 0 01-.73-1.104c-.165-.411-.247-.896-.247-1.449 0-.675.154-1.273.465-1.793a4.14 4.14 0 011.237-1.309 5.766 5.766 0 011.766-.794 7.75 7.75 0 012.046-.268c1.247 0 2.363.215 3.348.647v2.333c-1.06-.693-2.279-1.041-3.657-1.041-.431 0-.819.05-1.167.151a2.789 2.789 0 00-.893.413c-.248.177-.441.392-.577.64s-.204.521-.204.823c0 .375.068.689.204.94.136.254.335.481.598.678s.581.375.956.532c.375.16.802.333 1.281.521.637.245 1.209.496 1.715.754s.938.547 1.294.871c.356.323.631.695.823 1.119.191.421.289.923.289 1.504 0 .714-.158 1.332-.473 1.857a4.043 4.043 0 01-1.258 1.307 5.736 5.736 0 01-1.814.774 8.908 8.908 0 01-2.152.253c-1.481.001-2.767-.285-3.854-.856zm13.123-17.539a1.47 1.47 0 01-1.055-.423c-.289-.279-.436-.637-.436-1.069 0-.431.146-.789.436-1.075.291-.286.643-.43 1.055-.43.422 0 .781.144 1.077.43s.442.645.442 1.075c0 .413-.146.764-.442 1.056a1.477 1.477 0 01-1.077.436zm1.126 18.059h-2.308v-14.401h2.308v14.401zm15.185 0h-2.307v-8.214c0-3.057-1.117-4.587-3.348-4.587-1.153 0-2.107.436-2.862 1.304-.755.865-1.132 1.961-1.132 3.283v8.214h-2.307v-14.401h2.307v2.391h.057c1.087-1.818 2.662-2.729 4.724-2.729 1.576 0 2.78.509 3.615 1.526.833 1.018 1.253 2.487 1.253 4.409v8.804zm14.653-6.626h-10.17c.038 1.604.471 2.843 1.295 3.715s1.96 1.308 3.403 1.308c1.622 0 3.113-.534 4.473-1.604v2.166c-1.266.918-2.938 1.378-5.02 1.378-2.037 0-3.635-.655-4.797-1.962-1.164-1.307-1.744-3.146-1.744-5.52 0-2.24.635-4.068 1.906-5.478 1.27-1.412 2.848-2.118 4.732-2.118 1.883 0 3.342.609 4.373 1.827 1.032 1.221 1.548 2.914 1.548 5.078v1.21zm-2.362-1.954c-.01-1.331-.332-2.366-.964-3.109-.632-.739-1.511-1.111-2.637-1.111a3.729 3.729 0 00-2.771 1.168c-.759.78-1.228 1.797-1.405 3.053h7.777zm4.26 8.06v-2.475c1.255.929 2.638 1.392 4.147 1.392 2.025 0 3.038-.675 3.038-2.025 0-.385-.087-.71-.261-.979a2.593 2.593 0 00-.702-.708 5.492 5.492 0 00-1.041-.557 61.227 61.227 0 00-1.287-.511 16.777 16.777 0 01-1.68-.769 5.09 5.09 0 01-1.211-.871 3.223 3.223 0 01-.73-1.104c-.165-.411-.246-.896-.246-1.449 0-.675.154-1.273.463-1.793.31-.521.723-.957 1.236-1.309a5.767 5.767 0 011.768-.794 7.738 7.738 0 012.045-.268c1.248 0 2.363.215 3.348.647v2.333c-1.059-.693-2.278-1.041-3.656-1.041-.432 0-.821.05-1.168.151a2.81 2.81 0 00-.893.413 1.91 1.91 0 00-.578.64 1.689 1.689 0 00-.202.823c0 .375.067.689.202.94.137.254.336.481.6.678.262.196.58.375.956.532.374.16.802.333 1.28.521.637.245 1.209.496 1.715.754.507.258.938.547 1.295.871.355.323.629.695.821 1.119.194.421.289.923.289 1.504 0 .714-.157 1.332-.471 1.857a4.06 4.06 0 01-1.26 1.307 5.7 5.7 0 01-1.813.774 8.888 8.888 0 01-2.151.253c-1.483.001-2.767-.285-3.853-.856zm10.781 0v-2.475c1.256.929 2.639 1.392 4.148 1.392 2.025 0 3.037-.675 3.037-2.025 0-.385-.087-.71-.26-.979a2.611 2.611 0 00-.703-.708 5.432 5.432 0 00-1.041-.557 63.102 63.102 0 00-1.285-.511c-.641-.256-1.2-.51-1.683-.769a5.07 5.07 0 01-1.208-.871 3.243 3.243 0 01-.732-1.104c-.164-.411-.247-.896-.247-1.449 0-.675.154-1.273.465-1.793a4.14 4.14 0 011.237-1.309 5.766 5.766 0 011.766-.794 7.753 7.753 0 012.047-.268c1.248 0 2.363.215 3.348.647v2.333c-1.06-.693-2.28-1.041-3.658-1.041-.432 0-.82.05-1.166.151a2.81 2.81 0 00-.895.413c-.248.177-.439.392-.576.64s-.204.521-.204.823c0 .375.067.689.204.94.137.254.334.481.598.678s.58.375.957.532c.375.16.803.333 1.278.521.639.245 1.21.496 1.718.754.504.258.938.547 1.293.871.357.323.631.695.822 1.119.192.421.289.923.289 1.504 0 .714-.157 1.332-.471 1.857a4.04 4.04 0 01-1.26 1.307 5.72 5.72 0 01-1.813.774 8.9 8.9 0 01-2.151.253c-1.485.001-2.767-.285-3.854-.856zm22.742-19.649v2.025h-1.966v16.119h1.966v2.024h-6.3v-2.024h1.97v-16.119h-1.97v-2.025h6.3zm15.981 2.137h-5.82v18.032h-2.364v-18.032h-5.808v-2.137h13.992v2.137zm-.313 18.341c-.433 0-.801-.154-1.104-.463a1.527 1.527 0 01-.458-1.11c0-.433.152-.807.458-1.12a1.485 1.485 0 011.104-.472c.439 0 .815.159 1.124.472.31.313.464.688.464 1.12 0 .43-.154.8-.464 1.11a1.536 1.536 0 01-1.124.463zm32.659-.309h-2.615l-2.138-5.655h-8.551l-2.012 5.655h-2.63l7.734-20.169h2.448l7.764 20.169zm-5.526-7.778l-3.164-8.593c-.104-.281-.207-.731-.311-1.349h-.056c-.094.571-.201 1.02-.323 1.349l-3.137 8.593h6.991zm9.623 5.696h-.057v2.082h-2.305v-21.323h2.305v9.451h.057c1.135-1.912 2.795-2.868 4.979-2.868 1.847 0 3.294.645 4.339 1.934 1.045 1.29 1.568 3.016 1.568 5.183 0 2.409-.587 4.341-1.758 5.787-1.172 1.449-2.775 2.174-4.811 2.174-1.903-.001-3.342-.808-4.317-2.42zm-.057-5.809v2.012c0 1.192.388 2.199 1.16 3.03.775.83 1.757 1.245 2.947 1.245 1.398 0 2.491-.534 3.284-1.604.792-1.068 1.188-2.556 1.188-4.46 0-1.602-.37-2.858-1.111-3.767-.741-.91-1.744-1.367-3.009-1.367-1.342 0-2.421.469-3.235 1.4-.816.933-1.224 2.104-1.224 3.511zm25.293 1.265h-10.168c.037 1.604.469 2.843 1.295 3.715.824.872 1.959 1.308 3.401 1.308 1.623 0 3.114-.534 4.474-1.604v2.166c-1.266.918-2.939 1.378-5.021 1.378-2.034 0-3.633-.655-4.797-1.962-1.161-1.307-1.742-3.146-1.742-5.52 0-2.24.634-4.068 1.904-5.478 1.271-1.412 2.849-2.118 4.733-2.118s3.342.609 4.375 1.827c1.03 1.221 1.546 2.914 1.546 5.078v1.21zm-2.363-1.954c-.009-1.331-.33-2.366-.963-3.109-.633-.739-1.512-1.111-2.637-1.111-1.088 0-2.012.391-2.77 1.168-.76.78-1.23 1.797-1.407 3.053h7.777zm12.451-3.488c-.402-.309-.982-.463-1.742-.463-.984 0-1.809.463-2.469 1.392-.661.929-.992 2.193-.992 3.798v7.342h-2.306v-14.401h2.306v2.968h.056c.328-1.014.831-1.803 1.505-2.372.675-.567 1.43-.85 2.265-.85.601 0 1.061.066 1.378.196v2.39zm16.465 0c-.402-.309-.984-.463-1.744-.463-.984 0-1.809.463-2.469 1.392s-.99 2.193-.99 3.798v7.342h-2.309v-14.401h2.309v2.968h.055c.328-1.014.83-1.803 1.506-2.372.674-.567 1.43-.85 2.264-.85.6 0 1.059.066 1.379.196v2.39zm2.853-5.991c-.414 0-.766-.143-1.055-.423-.293-.279-.438-.637-.438-1.069 0-.431.145-.789.438-1.075.289-.286.641-.43 1.055-.43.422 0 .779.144 1.074.43s.443.645.443 1.075c0 .413-.148.764-.443 1.056a1.469 1.469 0 01-1.074.436zm1.125 18.059h-2.307v-14.401h2.307v14.401zm13.323-.661c-1.105.664-2.42.998-3.938.998-2.055 0-3.713-.669-4.975-2.004-1.26-1.336-1.891-3.068-1.891-5.198 0-2.37.68-4.276 2.041-5.715 1.357-1.44 3.172-2.16 5.441-2.16 1.268 0 2.383.234 3.35.702v2.362c-1.072-.748-2.213-1.125-3.434-1.125-1.473 0-2.678.529-3.621 1.584-.941 1.054-1.414 2.439-1.414 4.155 0 1.689.443 3.02 1.33 3.996.885.975 2.074 1.462 3.564 1.462 1.256 0 2.439-.416 3.545-1.253v2.196zm14.117.661h-2.307v-8.299c0-3.001-1.115-4.502-3.348-4.502-1.123 0-2.072.436-2.84 1.304-.77.865-1.152 1.979-1.152 3.34v8.157h-2.309v-21.323h2.309v9.313h.055c1.105-1.818 2.682-2.729 4.727-2.729 3.242 0 4.865 1.954 4.865 5.865v8.874zm9.693-.14c-.543.3-1.262.448-2.152.448-2.523 0-3.785-1.405-3.785-4.218v-8.524h-2.475v-1.968h2.475v-3.519l2.309-.744v4.263h3.629v1.968h-3.629v8.116c0 .965.162 1.654.49 2.067s.873.619 1.633.619c.58 0 1.084-.16 1.506-.479v1.971zm3.317-17.919a1.47 1.47 0 01-1.055-.423c-.291-.279-.436-.637-.436-1.069 0-.431.145-.789.436-1.075s.643-.43 1.055-.43c.422 0 .781.144 1.076.43s.443.645.443 1.075c0 .413-.148.764-.443 1.056a1.475 1.475 0 01-1.076.436zm1.125 18.059h-2.307v-14.401h2.307v14.401zm15.859-1.153c0 5.289-2.531 7.932-7.596 7.932-1.781 0-3.336-.338-4.668-1.013v-2.307c1.623.9 3.168 1.351 4.643 1.351 3.541 0 5.314-1.885 5.314-5.654v-1.576h-.057c-1.096 1.84-2.746 2.758-4.949 2.758-1.791 0-3.234-.64-4.326-1.92-1.092-1.279-1.639-2.998-1.639-5.155 0-2.445.59-4.393 1.766-5.836 1.178-1.442 2.787-2.166 4.83-2.166 1.943 0 3.381.777 4.318 2.336h.057v-1.997h2.307v13.247zm-2.307-5.361v-2.123c0-1.142-.387-2.123-1.16-2.938s-1.736-1.226-2.891-1.226c-1.426 0-2.541.521-3.346 1.555-.809 1.036-1.211 2.487-1.211 4.354 0 1.604.387 2.887 1.16 3.849.773.959 1.797 1.44 3.072 1.44 1.295 0 2.348-.459 3.158-1.378.814-.92 1.218-2.096 1.218-3.533zm6.754 6.823c-.43 0-.799-.154-1.102-.463a1.524 1.524 0 01-.459-1.11c0-.433.152-.807.459-1.12a1.482 1.482 0 011.102-.472c.441 0 .818.159 1.127.472.309.313.463.688.463 1.12 0 .43-.154.8-.463 1.11a1.536 1.536 0 01-1.127.463zM784.533 56.671l-3.445-3.155c2.895-9.164 8.08-16.493 14.814-22.563l4.592.862c-8.191 6.841-13.885 14.944-15.961 24.856zm35.81 24.881l9.492 4.881c12.405-9.031 19.626-20.753 17.685-37.797l-8.633-4.614c2.892 18.059-6.116 31.216-18.544 37.53zm18.964 9.34l7.482 3.885c11.148-10.819 15.41-23.623 15.809-37.53l-7.75-5.034c.84 16.513-4.879 29.074-15.541 38.679zm-60.668-39.387l-2.297-2.009c3.354-8.013 7.507-14.769 12.805-19.692l3.576.707c-5.916 4.767-10.464 12.008-14.084 20.994zm29.472-22.716l4.039-4.88c9.098-2.163 17.618.088 25.588 6.756l-2.871 6.026c-6.953-7.306-15.607-10.574-26.756-7.902zm10.641 4.26c-3.51-.884-7.264-.617-10.861.551-6.867 2.232-13.181 7.772-16.271 15.124-1.191 2.847-1.787 5.718-1.854 8.413v.97c.176 7.508 4.547 13.755 11.875 15.587 2.032.507 4.132.64 6.25.44 8.521-.838 17.087-7.152 20.861-16.116 1.215-2.847 1.813-5.695 1.877-8.411v-.971c-.177-7.506-4.57-13.754-11.877-15.587zm-5.629 18.191c-.973 2.319-3.07 3.997-5.232 4.46-.817.154-1.635.177-2.407-.021-2.892-.729-4.147-3.886-2.827-7.043.973-2.297 3.048-3.973 5.234-4.437a5.187 5.187 0 012.406.021c2.892.707 4.15 3.886 2.826 7.02zm-3.709 33.183l-4.746 8.632c-12.121-3.113-21.967-8.5-23.734-21.988l3.312-7.64c2.074 12.297 11.216 18.678 25.168 20.996zm85.084 8.986h-6.755V44.043h-6.204l-.043-6.533 13.002-.023zm37.774-18.945v-3.662c0-3.203-.396-5.917-1.171-8.125-.75-2.229-1.854-4.107-3.289-5.631-1.436-1.521-3.111-2.671-5.032-3.376-1.923-.729-4.105-1.083-6.603-1.083-.375 0-.749.022-1.104.044-5.032.223-9.14 2.164-12.339 5.762-3.4 3.863-5.124 9.075-5.124 15.611 0 6.644 1.767 11.741 5.279 15.364 3.022 3.068 7.085 4.836 12.184 5.299a37.64 37.64 0 002.716.109c1.611 0 2.979-.109 4.039-.284 1.063-.2 2.253-.487 3.576-.84.93-.243 1.99-.619 3.158-1.085 1.172-.463 2.166-.859 2.938-1.168v-7.374h-.398a16.74 16.74 0 01-2.074 1.457c-.841.529-1.855 1.037-3.09 1.588-1.148.531-2.452.972-3.865 1.304a19.104 19.104 0 01-6.999.33c-2.913-.44-5.274-1.611-7.085-3.53-2.341-2.451-3.533-6.028-3.533-10.71h27.816zm-27.817-5.165c.154-1.7.484-3.178 1.014-4.48a11.158 11.158 0 012.298-3.488 11.07 11.07 0 013.421-2.362c1.104-.463 2.385-.729 3.886-.796h.708c1.811 0 3.334.242 4.57.774a7.612 7.612 0 013.046 2.317c.706.904 1.259 2.009 1.634 3.334.396 1.325.617 2.893.661 4.701h-21.238zm62.856-15.587l-15.125 40.137h-6.071l-15.013-40.137h7.308l10.971 30.909 10.886-30.909zm8.675 40.137h-6.757V53.712h6.757v40.137zm.485-46.87h-7.705v-6.998h7.705v6.998zm30.642 6.733l-.373 1.722c-1.547-.903-3.07-1.609-4.594-2.094-1.502-.486-3.313-.753-5.385-.753-2.209 0-4.352.466-6.404 1.413-2.076.929-3.842 2.251-5.365 3.975-1.568 1.81-2.85 3.994-3.775 6.557-.928 2.584-1.389 5.541-1.389 8.873 0 6.359 1.348 11.24 4.059 14.638 2.717 3.4 6.359 5.101 10.93 5.101.664 0 1.324-.021 1.945-.066 1.787-.154 3.332-.509 4.613-1.06 1.744-.75 3.529-1.921 5.365-3.509v3.53c0 1.658-.178 3.136-.467 4.417a8.776 8.776 0 01-1.631 3.422c-.795.972-1.945 1.743-3.4 2.296-1.258.484-2.738.749-4.48.817-.268 0-.531.021-.818.021a20.98 20.98 0 01-3.445-.286 67.047 67.047 0 01-3.443-.773 39.09 39.09 0 01-3.025-.906c-.883-.331-1.564-.573-2.008-.772h-.354v7.043c1.766.506 3.664.948 5.717 1.259 2.055.309 4.063.463 6.029.463.461 0 .904-.022 1.348-.022 5.428-.22 9.512-1.811 12.273-4.767 2.98-3.18 4.457-8.17 4.457-14.97V53.712h-6.38zm-.373 29.23c-1.504 1.237-3.158 2.231-5.035 2.915a15.582 15.582 0 01-4.943 1.038h-.443c-3.354 0-5.783-1.171-7.285-3.489-1.502-2.317-2.254-5.718-2.254-10.156 0-4.701.994-8.302 2.961-10.817 1.742-2.229 4.104-3.486 7.021-3.731.352-.021.703-.042 1.059-.042 1.412 0 2.824.177 4.26.529 1.436.354 2.979.929 4.66 1.745v22.008zm41.35-24.792c-3.27-3.709-7.617-5.563-13.027-5.563h-.043c-5.363.022-9.691 1.876-12.982 5.585-3.289 3.709-4.943 8.92-4.943 15.611 0 6.533 1.59 11.678 4.791 15.475s7.572 5.697 13.135 5.697h.043c5.41 0 9.758-1.834 13.027-5.521 3.244-3.664 4.879-8.896 4.879-15.65-.001-6.715-1.636-11.945-4.88-15.634zm-4.947 27.157c-1.896 2.537-4.613 3.818-8.08 3.818h-.043c-3.488 0-6.205-1.301-8.104-3.885-1.898-2.606-2.846-6.426-2.846-11.457 0-5.188.947-9.054 2.846-11.569 1.898-2.518 4.615-3.776 8.104-3.8h.043c3.488 0 6.205 1.262 8.08 3.8 1.9 2.516 2.848 6.381 2.848 11.569-.001 5.12-.948 8.961-2.848 11.524zm10.908-49.433c-1.148-1.146-2.541-1.721-4.152-1.721h-.021c-1.613 0-3.002.574-4.15 1.721-1.148 1.127-1.723 2.518-1.723 4.151 0 1.612.574 3.003 1.723 4.15s2.537 1.722 4.15 1.722h.021c1.611 0 3.004-.596 4.152-1.722 1.146-1.147 1.721-2.538 1.721-4.15-.001-1.633-.575-3.024-1.721-4.151zm-.555 7.772c-.992.993-2.205 1.502-3.598 1.502-1.412 0-2.604-.509-3.598-1.502-.992-.992-1.502-2.207-1.502-3.62 0-1.436.51-2.628 1.502-3.643.994-.994 2.186-1.479 3.598-1.479 1.393 0 2.605.485 3.598 1.479.996 1.015 1.48 2.207 1.48 3.643.001 1.412-.484 2.627-1.48 3.62z"/><path d="M1051.885 39.604c.266-.285.379-.661.379-1.101 0-.354-.049-.62-.178-.842-.111-.221-.311-.396-.598-.552a1.64 1.64 0 00-.75-.265c-.199-.042-.486-.042-.84-.042-.043-.024-.109-.024-.154-.024h-1.898v6.226h1.127V40.6h.816l.109.108 1.832 2.296h1.527l-2.344-2.715c.4-.176.73-.396.972-.685zm-1.655.069c-.111.022-.221.044-.332.044-.088.021-.174.021-.262.021h-.664v-2.097h.925c.154 0 .287.021.398.044.131.022.264.066.373.131.135.088.223.2.289.312.045.131.066.264.066.44 0 .22-.021.398-.066.531a.814.814 0 01-.264.351c-.111.113-.265.179-.463.223z"/><g fill="#FFF"><path d="M1146.803 139.945v-20.17h5.739c1.745 0 3.126.427 4.148 1.279 1.022.854 1.534 1.966 1.534 3.335 0 1.144-.311 2.138-.93 2.982-.619.842-1.472 1.441-2.56 1.798v.057c1.36.16 2.448.674 3.263 1.541.816.867 1.225 1.995 1.225 3.381 0 1.726-.619 3.123-1.856 4.192s-2.798 1.604-4.684 1.604h-5.879zm2.363-18.032v6.513h2.42c1.293 0 2.311-.313 3.051-.935.742-.626 1.112-1.503 1.112-2.639 0-1.959-1.29-2.939-3.868-2.939h-2.715zm0 8.637v7.257h3.207c1.387 0 2.463-.328 3.228-.984.764-.655 1.147-1.557 1.147-2.701 0-2.382-1.623-3.571-4.867-3.571h-2.715zm24.045 9.395h-2.306v-2.278h-.057c-.957 1.743-2.438 2.614-4.444 2.614-3.432 0-5.147-2.044-5.147-6.133v-8.605h2.292v8.242c0 3.037 1.163 4.556 3.488 4.556 1.125 0 2.051-.414 2.777-1.245.728-.829 1.091-1.914 1.091-3.255v-8.298h2.306v14.402zm2.344-.522v-2.474c1.256.928 2.639 1.392 4.148 1.392 2.025 0 3.039-.674 3.039-2.025 0-.385-.088-.71-.26-.978a2.595 2.595 0 00-.705-.709 5.285 5.285 0 00-1.04-.557 66.706 66.706 0 00-1.287-.513c-.639-.255-1.198-.509-1.681-.767s-.887-.55-1.21-.873-.567-.691-.731-1.104-.246-.896-.246-1.448c0-.675.154-1.273.465-1.794.31-.521.721-.956 1.236-1.307a5.721 5.721 0 011.766-.795 7.764 7.764 0 012.047-.269c1.247 0 2.363.215 3.348.647v2.334c-1.061-.693-2.279-1.041-3.658-1.041-.43 0-.819.049-1.167.149a2.86 2.86 0 00-.894.414 1.924 1.924 0 00-.575.641 1.677 1.677 0 00-.204.821c0 .376.068.689.204.942s.334.479.597.676c.264.197.581.375.957.533.375.16.801.334 1.281.521.637.244 1.208.495 1.715.753.506.258.938.548 1.293.871.357.324.631.696.824 1.119.191.422.288.924.288 1.505 0 .712-.157 1.332-.472 1.857-.313.524-.734.959-1.259 1.307s-1.13.605-1.813.773a8.908 8.908 0 01-2.152.253c-1.482.004-2.768-.281-3.854-.854zm13.123-17.538c-.412 0-.764-.141-1.055-.422-.291-.28-.436-.636-.436-1.068 0-.432.145-.789.436-1.076.291-.286.643-.43 1.055-.43.422 0 .78.144 1.077.43.295.287.441.645.441 1.076 0 .412-.146.764-.441 1.055a1.48 1.48 0 01-1.077.435zm1.125 18.06h-2.307v-14.402h2.307v14.402zm15.185 0h-2.308v-8.214c0-3.058-1.116-4.587-3.347-4.587-1.153 0-2.107.436-2.863 1.303-.755.867-1.131 1.962-1.131 3.284v8.214h-2.307v-14.402h2.307v2.39h.057c1.087-1.818 2.662-2.729 4.724-2.729 1.576 0 2.78.509 3.615 1.526.833 1.019 1.253 2.487 1.253 4.409v8.806zm14.653-6.626h-10.169c.037 1.604.47 2.842 1.295 3.714.823.872 1.96 1.308 3.403 1.308 1.621 0 3.112-.534 4.473-1.603v2.166c-1.267.918-2.939 1.377-5.021 1.377-2.036 0-3.635-.654-4.796-1.961-1.165-1.309-1.745-3.147-1.745-5.521 0-2.241.636-4.066 1.906-5.478s2.849-2.118 4.732-2.118 3.343.609 4.374 1.828c1.031 1.221 1.547 2.912 1.547 5.077v1.211zm-2.363-1.955c-.009-1.33-.331-2.366-.964-3.108-.632-.74-1.511-1.111-2.637-1.111-1.088 0-2.012.391-2.771 1.168-.76.779-1.229 1.797-1.406 3.052h7.778zm4.26 8.059v-2.474c1.255.928 2.638 1.392 4.147 1.392 2.026 0 3.037-.674 3.037-2.025 0-.385-.085-.71-.26-.978a2.55 2.55 0 00-.701-.709c-.297-.208-.643-.393-1.041-.557s-.829-.335-1.288-.513a16.796 16.796 0 01-1.68-.767 5.088 5.088 0 01-1.21-.873 3.212 3.212 0 01-.731-1.104c-.164-.412-.246-.896-.246-1.448 0-.675.154-1.273.463-1.794.31-.521.723-.956 1.237-1.307a5.711 5.711 0 011.768-.795 7.738 7.738 0 012.045-.269c1.248 0 2.362.215 3.347.647v2.334c-1.059-.693-2.278-1.041-3.656-1.041-.431 0-.821.049-1.167.149a2.833 2.833 0 00-.893.414c-.25.178-.442.392-.578.641a1.688 1.688 0 00-.203.821c0 .376.068.689.203.942.136.253.335.479.599.676.263.197.581.375.956.533.374.16.802.334 1.279.521a17.64 17.64 0 011.716.753c.507.258.938.548 1.295.871a3.4 3.4 0 01.821 1.119c.193.422.289.924.289 1.505 0 .712-.157 1.332-.471 1.857-.314.524-.735.959-1.26 1.307s-1.128.605-1.813.773c-.684.17-1.4.253-2.151.253-1.483.004-2.766-.281-3.853-.854zm10.781 0v-2.474c1.257.928 2.64 1.392 4.149 1.392 2.024 0 3.037-.674 3.037-2.025 0-.385-.088-.71-.26-.978a2.577 2.577 0 00-.704-.709c-.295-.208-.642-.393-1.04-.557s-.829-.335-1.286-.513c-.641-.255-1.2-.509-1.683-.767s-.886-.55-1.208-.873c-.323-.323-.568-.691-.732-1.104s-.246-.896-.246-1.448c0-.675.153-1.273.464-1.794.31-.521.723-.956 1.237-1.307a5.727 5.727 0 011.767-.795 7.751 7.751 0 012.046-.269c1.248 0 2.364.215 3.348.647v2.334c-1.06-.693-2.28-1.041-3.658-1.041a4.2 4.2 0 00-1.166.149 2.829 2.829 0 00-.894.414 1.92 1.92 0 00-.577.641 1.677 1.677 0 00-.204.821c0 .376.068.689.204.942.137.253.334.479.598.676.264.197.581.375.958.533.375.16.802.334 1.277.521.639.244 1.21.495 1.717.753.506.258.939.548 1.294.871.357.324.631.696.823 1.119.191.422.288.924.288 1.505 0 .712-.157 1.332-.47 1.857-.315.524-.734.959-1.26 1.307s-1.129.605-1.814.773a8.893 8.893 0 01-2.151.253c-1.484.004-2.766-.281-3.854-.854zm22.744-19.648v2.025h-1.967v16.118h1.967v2.026h-6.301v-2.026h1.971V121.8h-1.971v-2.025h6.301zm15.979 2.138h-5.819v18.032h-2.365v-18.032h-5.808v-2.138h13.992v2.138zm-.312 18.341a1.49 1.49 0 01-1.105-.464 1.526 1.526 0 01-.458-1.11c0-.433.152-.807.458-1.12a1.484 1.484 0 011.105-.471c.439 0 .814.158 1.123.471.311.313.465.688.465 1.12 0 .43-.154.801-.465 1.11a1.528 1.528 0 01-1.123.464zm32.66-.309h-2.616l-2.138-5.656h-8.551l-2.013 5.656h-2.628l7.734-20.17h2.446l7.766 20.17zm-5.527-7.779l-3.165-8.593c-.104-.281-.207-.731-.31-1.35h-.056c-.095.572-.202 1.021-.323 1.35l-3.137 8.593h6.991zm9.623 5.697h-.057v2.082h-2.305v-21.323h2.305v9.451h.057c1.134-1.913 2.795-2.869 4.979-2.869 1.847 0 3.293.646 4.338 1.934 1.044 1.29 1.569 3.018 1.569 5.183 0 2.41-.587 4.341-1.758 5.788-1.173 1.448-2.776 2.173-4.811 2.173-1.903-.001-3.342-.805-4.317-2.419zm-.056-5.809v2.012c0 1.191.387 2.201 1.16 3.03.774.831 1.756 1.245 2.947 1.245 1.397 0 2.49-.534 3.284-1.603.792-1.069 1.188-2.556 1.188-4.459 0-1.604-.371-2.859-1.111-3.769-.742-.909-1.744-1.366-3.01-1.366-1.342 0-2.42.468-3.235 1.4s-1.223 2.103-1.223 3.51zm25.293 1.265h-10.17c.039 1.604.469 2.842 1.295 3.714s1.959 1.308 3.404 1.308c1.623 0 3.113-.534 4.471-1.603v2.166c-1.264.918-2.938 1.377-5.02 1.377-2.035 0-3.635-.654-4.797-1.961-1.162-1.309-1.744-3.147-1.744-5.521 0-2.241.636-4.066 1.906-5.478 1.27-1.411 2.848-2.118 4.732-2.118 1.887 0 3.342.609 4.375 1.828 1.031 1.221 1.547 2.912 1.547 5.077v1.211zm-2.364-1.955c-.01-1.33-.33-2.366-.963-3.108-.633-.74-1.512-1.111-2.637-1.111-1.09 0-2.014.391-2.771 1.168-.758.779-1.229 1.797-1.406 3.052h7.777zm12.452-3.488c-.402-.308-.984-.463-1.742-.463-.984 0-1.809.463-2.469 1.393-.662.928-.994 2.193-.994 3.798v7.342h-2.305v-14.402h2.305v2.968h.057c.33-1.013.83-1.803 1.506-2.372.676-.566 1.43-.849 2.264-.849.602 0 1.061.065 1.379.196v2.389zm16.462 0c-.4-.308-.984-.463-1.742-.463-.986 0-1.809.463-2.471 1.393-.658.928-.99 2.193-.99 3.798v7.342h-2.307v-14.402h2.307v2.968h.057c.328-1.013.83-1.803 1.506-2.372.674-.566 1.428-.849 2.264-.849.598 0 1.059.065 1.377.196v2.389zm2.854-5.991c-.412 0-.764-.141-1.055-.422-.291-.28-.436-.636-.436-1.068 0-.432.145-.789.436-1.076.291-.286.643-.43 1.055-.43.422 0 .781.144 1.076.43.295.287.443.645.443 1.076 0 .412-.148.764-.443 1.055a1.474 1.474 0 01-1.076.435zm1.125 18.06h-2.307v-14.402h2.307v14.402zm13.324-.662c-1.107.665-2.42.998-3.938.998-2.057 0-3.713-.669-4.975-2.004-1.26-1.336-1.891-3.068-1.891-5.197 0-2.371.678-4.276 2.041-5.717 1.357-1.438 3.172-2.159 5.439-2.159 1.27 0 2.385.234 3.352.703v2.363c-1.072-.75-2.215-1.126-3.434-1.126-1.473 0-2.678.529-3.621 1.583-.943 1.056-1.414 2.44-1.414 4.156 0 1.689.441 3.02 1.328 3.995.885.974 2.074 1.462 3.566 1.462 1.254 0 2.438-.416 3.545-1.252v2.195zm14.117.662h-2.307v-8.299c0-3.001-1.115-4.502-3.348-4.502-1.125 0-2.072.436-2.842 1.303-.768.867-1.152 1.98-1.152 3.34v8.158h-2.307v-21.323h2.307v9.311h.057c1.105-1.818 2.682-2.729 4.727-2.729 3.242 0 4.865 1.954 4.865 5.865v8.876zm9.692-.14c-.543.3-1.262.449-2.152.449-2.521 0-3.783-1.406-3.783-4.219v-8.523h-2.475v-1.969h2.475v-3.518l2.307-.744v4.262h3.629v1.969h-3.629v8.115c0 .965.164 1.655.492 2.068.328.411.873.617 1.633.617.58 0 1.082-.16 1.504-.478v1.971zm3.318-17.92c-.412 0-.766-.141-1.055-.422-.291-.28-.436-.636-.436-1.068 0-.432.145-.789.436-1.076.289-.286.643-.43 1.055-.43.422 0 .781.144 1.074.43.295.287.445.645.445 1.076 0 .412-.15.764-.445 1.055a1.466 1.466 0 01-1.074.435zm1.125 18.06h-2.307v-14.402h2.307v14.402zm15.86-1.153c0 5.288-2.533 7.931-7.596 7.931-1.781 0-3.336-.337-4.668-1.013v-2.307c1.621.901 3.168 1.351 4.641 1.351 3.543 0 5.314-1.884 5.314-5.654v-1.575h-.055c-1.096 1.84-2.748 2.757-4.951 2.757-1.791 0-3.232-.64-4.324-1.92-1.092-1.279-1.639-2.997-1.639-5.154 0-2.446.59-4.394 1.766-5.835 1.176-1.445 2.785-2.168 4.83-2.168 1.941 0 3.381.779 4.318 2.335h.055v-1.996h2.309v13.248zm-2.309-5.361v-2.122c0-1.144-.387-2.124-1.158-2.938-.773-.816-1.738-1.226-2.893-1.226-1.424 0-2.541.52-3.346 1.555-.807 1.036-1.209 2.487-1.209 4.354 0 1.604.387 2.886 1.16 3.847s1.797 1.441 3.072 1.441c1.295 0 2.348-.458 3.158-1.378s1.216-2.098 1.216-3.533zm6.756 6.823c-.432 0-.799-.155-1.104-.464a1.529 1.529 0 01-.457-1.11c0-.433.152-.807.457-1.12a1.485 1.485 0 011.104-.471c.441 0 .816.158 1.125.471.311.313.465.688.465 1.12 0 .43-.154.801-.465 1.11a1.532 1.532 0 01-1.125.464zm-270.58-83.593l-3.443-3.156c2.895-9.163 8.08-16.493 14.813-22.563l4.593.861c-8.192 6.843-13.885 14.945-15.963 24.858zm35.81 24.881l9.492 4.88c12.406-9.03 19.627-20.753 17.686-37.796l-8.634-4.614c2.894 18.058-6.115 31.216-18.544 37.53zm18.963 9.338l7.484 3.887c11.148-10.819 15.41-23.623 15.809-37.531l-7.751-5.033c.84 16.513-4.878 29.073-15.542 38.677zm-60.666-39.385l-2.299-2.01c3.355-8.013 7.509-14.769 12.807-19.692l3.575.707c-5.915 4.77-10.464 12.009-14.083 20.995zm29.473-22.716l4.038-4.881c9.097-2.163 17.618.089 25.589 6.756l-2.871 6.027c-6.954-7.308-15.608-10.575-26.756-7.902zm10.64 4.26c-3.51-.885-7.264-.617-10.862.551-6.866 2.231-13.181 7.771-16.271 15.123-1.191 2.848-1.788 5.719-1.855 8.413v.971c.178 7.506 4.549 13.755 11.877 15.586 2.031.507 4.131.642 6.249.44 8.522-.839 17.088-7.15 20.862-16.115 1.215-2.849 1.813-5.696 1.877-8.411v-.971c-.177-7.507-4.57-13.755-11.877-15.587zm-5.629 18.192c-.973 2.318-3.069 3.994-5.232 4.458-.817.154-1.634.178-2.407-.021-2.893-.729-4.147-3.886-2.826-7.042.973-2.297 3.048-3.975 5.233-4.438a5.218 5.218 0 012.407.021c2.891.707 4.15 3.888 2.825 7.022zm-3.709 33.181l-4.745 8.633c-12.121-3.113-21.968-8.5-23.734-21.989l3.311-7.639c2.075 12.296 11.215 18.678 25.168 20.995zm85.084 8.985h-6.755V44.033h-6.203l-.044-6.534 13.002-.022zm37.775-18.943v-3.663c0-3.202-.397-5.917-1.171-8.124-.75-2.23-1.854-4.107-3.289-5.631s-3.111-2.671-5.033-3.378c-1.922-.729-4.105-1.081-6.603-1.081-.375 0-.749.022-1.104.043-5.033.222-9.139 2.164-12.34 5.763-3.399 3.863-5.123 9.074-5.123 15.61 0 6.645 1.768 11.742 5.279 15.365 3.022 3.067 7.086 4.835 12.184 5.298.885.064 1.769.11 2.716.11 1.612 0 2.979-.11 4.04-.286 1.063-.199 2.253-.486 3.576-.838.929-.245 1.989-.62 3.156-1.084 1.174-.465 2.167-.86 2.938-1.169v-7.374h-.397c-.551.463-1.236.949-2.074 1.456-.842.529-1.856 1.037-3.09 1.589-1.148.53-2.453.972-3.865 1.304a19.117 19.117 0 01-7 .33c-2.913-.44-5.274-1.611-7.086-3.532-2.34-2.45-3.531-6.027-3.531-10.708h27.817zm-27.817-5.165c.154-1.7.483-3.179 1.014-4.48a11.141 11.141 0 012.297-3.489 11.076 11.076 0 013.421-2.362c1.104-.463 2.386-.729 3.886-.796h.708c1.811 0 3.334.243 4.57.774 1.235.529 2.251 1.303 3.046 2.318.707.903 1.259 2.008 1.635 3.334.396 1.324.616 2.891.66 4.701h-21.237zm62.853-15.587l-15.123 40.137h-6.07l-15.014-40.137h7.308l10.971 30.908 10.885-30.908zm8.678 40.137h-6.758V53.702h6.758v40.137zm.484-46.87h-7.705v-6.998h7.705v6.998zm30.643 6.733l-.373 1.723c-1.547-.904-3.07-1.611-4.594-2.096-1.504-.487-3.313-.752-5.387-.752a15.14 15.14 0 00-6.402 1.412c-2.078.929-3.844 2.252-5.367 3.975-1.566 1.811-2.848 3.995-3.773 6.558-.928 2.582-1.389 5.54-1.389 8.873 0 6.36 1.348 11.239 4.059 14.638 2.717 3.399 6.359 5.101 10.93 5.101.662 0 1.324-.021 1.943-.067 1.789-.153 3.332-.507 4.613-1.059 1.746-.752 3.531-1.921 5.367-3.51v3.531c0 1.657-.18 3.135-.467 4.417a8.767 8.767 0 01-1.631 3.42c-.797.973-1.945 1.745-3.402 2.298-1.256.485-2.738.749-4.48.816-.266 0-.531.021-.816.021a21.1 21.1 0 01-3.447-.285 67.554 67.554 0 01-3.441-.774 38.847 38.847 0 01-3.025-.905c-.883-.33-1.566-.574-2.01-.772h-.352v7.043c1.766.506 3.664.948 5.717 1.259 2.053.309 4.063.463 6.029.463.461 0 .902-.023 1.346-.023 5.43-.22 9.514-1.81 12.275-4.768 2.979-3.179 4.457-8.169 4.457-14.969V53.702h-6.38zm-.373 29.23c-1.506 1.237-3.158 2.23-5.035 2.915-1.68.642-3.332.973-4.945 1.038h-.443c-3.354 0-5.783-1.171-7.285-3.488-1.5-2.318-2.252-5.718-2.252-10.156 0-4.702.994-8.301 2.961-10.817 1.742-2.229 4.104-3.487 7.02-3.731.354-.021.705-.044 1.059-.044 1.414 0 2.824.179 4.26.53 1.436.354 2.98.929 4.662 1.745v22.008zm41.349-24.791c-3.27-3.709-7.617-5.563-13.027-5.563h-.043c-5.363.022-9.693 1.876-12.984 5.584-3.289 3.71-4.941 8.921-4.941 15.61 0 6.534 1.588 11.679 4.789 15.476 3.203 3.798 7.574 5.696 13.137 5.696h.043c5.41 0 9.758-1.832 13.027-5.52 3.244-3.665 4.877-8.897 4.877-15.652-.001-6.713-1.634-11.945-4.878-15.631zm-4.947 27.155c-1.896 2.537-4.613 3.818-8.08 3.818h-.043c-3.49 0-6.205-1.302-8.104-3.885-1.9-2.605-2.848-6.425-2.848-11.458 0-5.188.947-9.053 2.848-11.569 1.898-2.517 4.613-3.775 8.104-3.798h.043c3.488 0 6.205 1.26 8.08 3.798 1.9 2.517 2.848 6.381 2.848 11.569 0 5.122-.948 8.962-2.848 11.525zm10.908-49.431c-1.15-1.148-2.543-1.723-4.152-1.723h-.021c-1.615 0-3.002.574-4.15 1.723-1.148 1.125-1.723 2.516-1.723 4.149 0 1.613.574 3.003 1.723 4.15 1.148 1.148 2.535 1.723 4.15 1.723h.021c1.609 0 3.002-.598 4.152-1.723 1.146-1.147 1.721-2.537 1.721-4.15 0-1.633-.574-3.024-1.721-4.149zm-.556 7.77c-.992.993-2.205 1.502-3.596 1.502-1.414 0-2.605-.509-3.6-1.502-.992-.992-1.502-2.206-1.502-3.62 0-1.435.51-2.628 1.502-3.643.994-.993 2.186-1.478 3.6-1.478 1.391 0 2.604.484 3.596 1.478.996 1.015 1.48 2.208 1.48 3.643 0 1.414-.484 2.628-1.48 3.62z"/><path d="M1421.908 39.595c.266-.287.377-.661.377-1.103 0-.354-.047-.619-.176-.84-.111-.221-.311-.396-.598-.553a1.654 1.654 0 00-.75-.264c-.199-.043-.486-.043-.84-.043-.045-.023-.109-.023-.154-.023h-1.9v6.227h1.127V40.59h.818l.109.109 1.832 2.297h1.527l-2.344-2.717c.4-.175.73-.397.972-.684zm-1.656.067c-.111.022-.221.044-.33.044-.088.022-.176.022-.264.022h-.664V37.63h.927c.152 0 .285.021.396.044.133.022.264.067.375.133a.897.897 0 01.289.31c.043.131.066.264.066.441 0 .221-.023.397-.066.529a.804.804 0 01-.266.353c-.11.111-.264.178-.463.222z"/></g><g fill="#FFF"><path d="M1526.803 139.945v-20.17h5.739c1.745 0 3.126.427 4.148 1.279 1.022.854 1.534 1.966 1.534 3.335 0 1.144-.311 2.138-.93 2.982-.619.842-1.472 1.441-2.56 1.798v.057c1.36.16 2.448.674 3.263 1.541.816.867 1.225 1.995 1.225 3.381 0 1.726-.619 3.123-1.856 4.192s-2.798 1.604-4.684 1.604h-5.879zm2.363-18.032v6.513h2.42c1.293 0 2.311-.313 3.051-.935.742-.626 1.112-1.503 1.112-2.639 0-1.959-1.29-2.939-3.868-2.939h-2.715zm0 8.637v7.257h3.207c1.387 0 2.463-.328 3.228-.984.764-.655 1.147-1.557 1.147-2.701 0-2.382-1.623-3.571-4.867-3.571h-2.715zm24.045 9.395h-2.306v-2.278h-.057c-.957 1.743-2.438 2.614-4.444 2.614-3.432 0-5.147-2.044-5.147-6.133v-8.605h2.292v8.242c0 3.037 1.163 4.556 3.488 4.556 1.125 0 2.051-.414 2.777-1.245.728-.829 1.091-1.914 1.091-3.255v-8.298h2.306v14.402zm2.344-.522v-2.474c1.256.928 2.639 1.392 4.148 1.392 2.025 0 3.039-.674 3.039-2.025 0-.385-.088-.71-.26-.978a2.595 2.595 0 00-.705-.709 5.285 5.285 0 00-1.04-.557 66.706 66.706 0 00-1.287-.513c-.639-.255-1.198-.509-1.681-.767s-.887-.55-1.21-.873-.567-.691-.731-1.104-.246-.896-.246-1.448c0-.675.154-1.273.465-1.794.31-.521.721-.956 1.236-1.307a5.721 5.721 0 011.766-.795 7.764 7.764 0 012.047-.269c1.247 0 2.363.215 3.348.647v2.334c-1.061-.693-2.279-1.041-3.658-1.041-.43 0-.819.049-1.167.149a2.86 2.86 0 00-.894.414 1.924 1.924 0 00-.575.641 1.677 1.677 0 00-.204.821c0 .376.068.689.204.942s.334.479.597.676c.264.197.581.375.957.533.375.16.801.334 1.281.521.637.244 1.208.495 1.715.753.506.258.938.548 1.293.871.357.324.631.696.824 1.119.191.422.288.924.288 1.505 0 .712-.157 1.332-.472 1.857-.313.524-.734.959-1.259 1.307s-1.13.605-1.813.773a8.908 8.908 0 01-2.152.253c-1.482.004-2.768-.281-3.854-.854zm13.123-17.538c-.412 0-.764-.141-1.055-.422-.291-.28-.436-.636-.436-1.068 0-.432.145-.789.436-1.076.291-.286.643-.43 1.055-.43.422 0 .78.144 1.077.43.295.287.441.645.441 1.076 0 .412-.146.764-.441 1.055a1.48 1.48 0 01-1.077.435zm1.125 18.06h-2.307v-14.402h2.307v14.402zm15.185 0h-2.308v-8.214c0-3.058-1.116-4.587-3.347-4.587-1.153 0-2.107.436-2.863 1.303-.755.867-1.131 1.962-1.131 3.284v8.214h-2.307v-14.402h2.307v2.39h.057c1.087-1.818 2.662-2.729 4.724-2.729 1.576 0 2.78.509 3.615 1.526.833 1.019 1.253 2.487 1.253 4.409v8.806zm14.653-6.626h-10.169c.037 1.604.47 2.842 1.295 3.714.823.872 1.96 1.308 3.403 1.308 1.621 0 3.112-.534 4.473-1.603v2.166c-1.267.918-2.939 1.377-5.021 1.377-2.036 0-3.635-.654-4.796-1.961-1.165-1.309-1.745-3.147-1.745-5.521 0-2.241.636-4.066 1.906-5.478s2.849-2.118 4.732-2.118 3.343.609 4.374 1.828c1.031 1.221 1.547 2.912 1.547 5.077v1.211zm-2.363-1.955c-.009-1.33-.331-2.366-.964-3.108-.632-.74-1.511-1.111-2.637-1.111-1.088 0-2.012.391-2.771 1.168-.76.779-1.229 1.797-1.406 3.052h7.778zm4.26 8.059v-2.474c1.255.928 2.638 1.392 4.147 1.392 2.026 0 3.037-.674 3.037-2.025 0-.385-.085-.71-.26-.978a2.55 2.55 0 00-.701-.709c-.297-.208-.643-.393-1.041-.557s-.829-.335-1.288-.513a16.796 16.796 0 01-1.68-.767 5.088 5.088 0 01-1.21-.873 3.212 3.212 0 01-.731-1.104c-.164-.412-.246-.896-.246-1.448 0-.675.154-1.273.463-1.794.31-.521.723-.956 1.237-1.307a5.711 5.711 0 011.768-.795 7.738 7.738 0 012.045-.269c1.248 0 2.362.215 3.347.647v2.334c-1.059-.693-2.278-1.041-3.656-1.041-.431 0-.821.049-1.167.149a2.833 2.833 0 00-.893.414c-.25.178-.442.392-.578.641a1.688 1.688 0 00-.203.821c0 .376.068.689.203.942.136.253.335.479.599.676.263.197.581.375.956.533.374.16.802.334 1.279.521a17.64 17.64 0 011.716.753c.507.258.938.548 1.295.871a3.4 3.4 0 01.821 1.119c.193.422.289.924.289 1.505 0 .712-.157 1.332-.471 1.857-.314.524-.735.959-1.26 1.307s-1.128.605-1.813.773c-.684.17-1.4.253-2.151.253-1.483.004-2.766-.281-3.853-.854zm10.781 0v-2.474c1.257.928 2.64 1.392 4.149 1.392 2.024 0 3.037-.674 3.037-2.025 0-.385-.088-.71-.26-.978a2.577 2.577 0 00-.704-.709c-.295-.208-.642-.393-1.04-.557s-.829-.335-1.286-.513c-.641-.255-1.2-.509-1.683-.767s-.886-.55-1.208-.873c-.323-.323-.568-.691-.732-1.104s-.246-.896-.246-1.448c0-.675.153-1.273.464-1.794.31-.521.723-.956 1.237-1.307a5.727 5.727 0 011.767-.795 7.751 7.751 0 012.046-.269c1.248 0 2.364.215 3.348.647v2.334c-1.06-.693-2.28-1.041-3.658-1.041a4.2 4.2 0 00-1.166.149 2.829 2.829 0 00-.894.414 1.92 1.92 0 00-.577.641 1.677 1.677 0 00-.204.821c0 .376.068.689.204.942.137.253.334.479.598.676.264.197.581.375.958.533.375.16.802.334 1.277.521.639.244 1.21.495 1.717.753.506.258.939.548 1.294.871.357.324.631.696.823 1.119.191.422.288.924.288 1.505 0 .712-.157 1.332-.47 1.857-.315.524-.734.959-1.26 1.307s-1.129.605-1.814.773a8.893 8.893 0 01-2.151.253c-1.484.004-2.766-.281-3.854-.854zm22.744-19.648v2.025h-1.967v16.118h1.967v2.026h-6.301v-2.026h1.971V121.8h-1.971v-2.025h6.301zm15.979 2.138h-5.819v18.032h-2.365v-18.032h-5.808v-2.138h13.992v2.138zm-.312 18.341a1.49 1.49 0 01-1.105-.464 1.526 1.526 0 01-.458-1.11c0-.433.152-.807.458-1.12a1.484 1.484 0 011.105-.471c.439 0 .814.158 1.123.471.311.313.465.688.465 1.12 0 .43-.154.801-.465 1.11a1.528 1.528 0 01-1.123.464zm32.66-.309h-2.616l-2.138-5.656h-8.551l-2.013 5.656h-2.628l7.734-20.17h2.446l7.766 20.17zm-5.527-7.779l-3.165-8.593c-.104-.281-.207-.731-.31-1.35h-.056c-.095.572-.202 1.021-.323 1.35l-3.137 8.593h6.991zm9.623 5.697h-.057v2.082h-2.305v-21.323h2.305v9.451h.057c1.134-1.913 2.795-2.869 4.979-2.869 1.847 0 3.293.646 4.338 1.934 1.044 1.29 1.569 3.018 1.569 5.183 0 2.41-.587 4.341-1.758 5.788-1.173 1.448-2.776 2.173-4.811 2.173-1.903-.001-3.342-.805-4.317-2.419zm-.056-5.809v2.012c0 1.191.387 2.201 1.16 3.03.774.831 1.756 1.245 2.947 1.245 1.397 0 2.49-.534 3.284-1.603.792-1.069 1.188-2.556 1.188-4.459 0-1.604-.371-2.859-1.111-3.769-.742-.909-1.744-1.366-3.01-1.366-1.342 0-2.42.468-3.235 1.4s-1.223 2.103-1.223 3.51zm25.293 1.265h-10.17c.039 1.604.469 2.842 1.295 3.714s1.959 1.308 3.404 1.308c1.623 0 3.113-.534 4.471-1.603v2.166c-1.264.918-2.938 1.377-5.02 1.377-2.035 0-3.635-.654-4.797-1.961-1.162-1.309-1.744-3.147-1.744-5.521 0-2.241.636-4.066 1.906-5.478 1.27-1.411 2.848-2.118 4.732-2.118 1.887 0 3.342.609 4.375 1.828 1.031 1.221 1.547 2.912 1.547 5.077v1.211zm-2.364-1.955c-.01-1.33-.33-2.366-.963-3.108-.633-.74-1.512-1.111-2.637-1.111-1.09 0-2.014.391-2.771 1.168-.758.779-1.229 1.797-1.406 3.052h7.777zm12.452-3.488c-.402-.308-.984-.463-1.742-.463-.984 0-1.809.463-2.469 1.393-.662.928-.994 2.193-.994 3.798v7.342h-2.305v-14.402h2.305v2.968h.057c.33-1.013.83-1.803 1.506-2.372.676-.566 1.43-.849 2.264-.849.602 0 1.061.065 1.379.196v2.389zm16.462 0c-.4-.308-.984-.463-1.742-.463-.986 0-1.809.463-2.471 1.393-.658.928-.99 2.193-.99 3.798v7.342h-2.307v-14.402h2.307v2.968h.057c.328-1.013.83-1.803 1.506-2.372.674-.566 1.428-.849 2.264-.849.598 0 1.059.065 1.377.196v2.389zm2.854-5.991c-.412 0-.764-.141-1.055-.422-.291-.28-.436-.636-.436-1.068 0-.432.145-.789.436-1.076.291-.286.643-.43 1.055-.43.422 0 .781.144 1.076.43.295.287.443.645.443 1.076 0 .412-.148.764-.443 1.055a1.474 1.474 0 01-1.076.435zm1.125 18.06h-2.307v-14.402h2.307v14.402zm13.324-.662c-1.107.665-2.42.998-3.938.998-2.057 0-3.713-.669-4.975-2.004-1.26-1.336-1.891-3.068-1.891-5.197 0-2.371.678-4.276 2.041-5.717 1.357-1.438 3.172-2.159 5.439-2.159 1.27 0 2.385.234 3.352.703v2.363c-1.072-.75-2.215-1.126-3.434-1.126-1.473 0-2.678.529-3.621 1.583-.943 1.056-1.414 2.44-1.414 4.156 0 1.689.441 3.02 1.328 3.995.885.974 2.074 1.462 3.566 1.462 1.254 0 2.438-.416 3.545-1.252v2.195zm14.117.662h-2.307v-8.299c0-3.001-1.115-4.502-3.348-4.502-1.125 0-2.072.436-2.842 1.303-.768.867-1.152 1.98-1.152 3.34v8.158h-2.307v-21.323h2.307v9.311h.057c1.105-1.818 2.682-2.729 4.727-2.729 3.242 0 4.865 1.954 4.865 5.865v8.876zm9.692-.14c-.543.3-1.262.449-2.152.449-2.521 0-3.783-1.406-3.783-4.219v-8.523h-2.475v-1.969h2.475v-3.518l2.307-.744v4.262h3.629v1.969h-3.629v8.115c0 .965.164 1.655.492 2.068.328.411.873.617 1.633.617.58 0 1.082-.16 1.504-.478v1.971zm3.318-17.92c-.412 0-.766-.141-1.055-.422-.291-.28-.436-.636-.436-1.068 0-.432.145-.789.436-1.076.289-.286.643-.43 1.055-.43.422 0 .781.144 1.074.43.295.287.445.645.445 1.076 0 .412-.15.764-.445 1.055a1.466 1.466 0 01-1.074.435zm1.125 18.06h-2.307v-14.402h2.307v14.402zm15.86-1.153c0 5.288-2.533 7.931-7.596 7.931-1.781 0-3.336-.337-4.668-1.013v-2.307c1.621.901 3.168 1.351 4.641 1.351 3.543 0 5.314-1.884 5.314-5.654v-1.575h-.055c-1.096 1.84-2.748 2.757-4.951 2.757-1.791 0-3.232-.64-4.324-1.92-1.092-1.279-1.639-2.997-1.639-5.154 0-2.446.59-4.394 1.766-5.835 1.176-1.445 2.785-2.168 4.83-2.168 1.941 0 3.381.779 4.318 2.335h.055v-1.996h2.309v13.248zm-2.309-5.361v-2.122c0-1.144-.387-2.124-1.158-2.938-.773-.816-1.738-1.226-2.893-1.226-1.424 0-2.541.52-3.346 1.555-.807 1.036-1.209 2.487-1.209 4.354 0 1.604.387 2.886 1.16 3.847s1.797 1.441 3.072 1.441c1.295 0 2.348-.458 3.158-1.378s1.216-2.098 1.216-3.533zm6.756 6.823c-.432 0-.799-.155-1.104-.464a1.529 1.529 0 01-.457-1.11c0-.433.152-.807.457-1.12a1.485 1.485 0 011.104-.471c.441 0 .816.158 1.125.471.311.313.465.688.465 1.12 0 .43-.154.801-.465 1.11a1.532 1.532 0 01-1.125.464zm-270.58-83.593l-3.443-3.156c2.895-9.163 8.08-16.493 14.813-22.563l4.593.861c-8.192 6.843-13.885 14.945-15.963 24.858zm35.81 24.881l9.492 4.88c12.406-9.03 19.627-20.753 17.686-37.796l-8.634-4.614c2.894 18.058-6.115 31.216-18.544 37.53zm18.963 9.338l7.484 3.887c11.148-10.819 15.41-23.623 15.809-37.531l-7.751-5.033c.84 16.513-4.878 29.073-15.542 38.677zm-60.666-39.385l-2.299-2.01c3.355-8.013 7.509-14.769 12.807-19.692l3.575.707c-5.915 4.77-10.464 12.009-14.083 20.995zm29.473-22.716l4.038-4.881c9.097-2.163 17.618.089 25.589 6.756l-2.871 6.027c-6.954-7.308-15.608-10.575-26.756-7.902zm10.64 4.26c-3.51-.885-7.264-.617-10.862.551-6.866 2.231-13.181 7.771-16.271 15.123-1.191 2.848-1.788 5.719-1.855 8.413v.971c.178 7.506 4.549 13.755 11.877 15.586 2.031.507 4.131.642 6.249.44 8.522-.839 17.088-7.15 20.862-16.115 1.215-2.849 1.813-5.696 1.877-8.411v-.971c-.177-7.507-4.57-13.755-11.877-15.587zm-5.629 18.192c-.973 2.318-3.069 3.994-5.232 4.458-.817.154-1.634.178-2.407-.021-2.893-.729-4.147-3.886-2.826-7.042.973-2.297 3.048-3.975 5.233-4.438a5.218 5.218 0 012.407.021c2.891.707 4.15 3.888 2.825 7.022zm-3.709 33.181l-4.745 8.633c-12.121-3.113-21.968-8.5-23.734-21.989l3.311-7.639c2.075 12.296 11.215 18.678 25.168 20.995zm85.084 8.985h-6.755V44.033h-6.203l-.044-6.534 13.002-.022zm37.775-18.943v-3.663c0-3.202-.397-5.917-1.171-8.124-.75-2.23-1.854-4.107-3.289-5.631s-3.111-2.671-5.033-3.378c-1.922-.729-4.105-1.081-6.603-1.081-.375 0-.749.022-1.104.043-5.033.222-9.139 2.164-12.34 5.763-3.399 3.863-5.123 9.074-5.123 15.61 0 6.645 1.768 11.742 5.279 15.365 3.022 3.067 7.086 4.835 12.184 5.298.885.064 1.769.11 2.716.11 1.612 0 2.979-.11 4.04-.286 1.063-.199 2.253-.486 3.576-.838.929-.245 1.989-.62 3.156-1.084 1.174-.465 2.167-.86 2.938-1.169v-7.374h-.397c-.551.463-1.236.949-2.074 1.456-.842.529-1.856 1.037-3.09 1.589-1.148.53-2.453.972-3.865 1.304a19.117 19.117 0 01-7 .33c-2.913-.44-5.274-1.611-7.086-3.532-2.34-2.45-3.531-6.027-3.531-10.708h27.817zm-27.817-5.165c.154-1.7.483-3.179 1.014-4.48a11.141 11.141 0 012.297-3.489 11.076 11.076 0 013.421-2.362c1.104-.463 2.386-.729 3.886-.796h.708c1.811 0 3.334.243 4.57.774 1.235.529 2.251 1.303 3.046 2.318.707.903 1.259 2.008 1.635 3.334.396 1.324.616 2.891.66 4.701h-21.237zm62.853-15.587l-15.123 40.137h-6.07l-15.014-40.137h7.308l10.971 30.908 10.885-30.908zm8.678 40.137h-6.758V53.702h6.758v40.137zm.484-46.87h-7.705v-6.998h7.705v6.998zm30.643 6.733l-.373 1.723c-1.547-.904-3.07-1.611-4.594-2.096-1.504-.487-3.313-.752-5.387-.752a15.14 15.14 0 00-6.402 1.412c-2.078.929-3.844 2.252-5.367 3.975-1.566 1.811-2.848 3.995-3.773 6.558-.928 2.582-1.389 5.54-1.389 8.873 0 6.36 1.348 11.239 4.059 14.638 2.717 3.399 6.359 5.101 10.93 5.101.662 0 1.324-.021 1.943-.067 1.789-.153 3.332-.507 4.613-1.059 1.746-.752 3.531-1.921 5.367-3.51v3.531c0 1.657-.18 3.135-.467 4.417a8.767 8.767 0 01-1.631 3.42c-.797.973-1.945 1.745-3.402 2.298-1.256.485-2.738.749-4.48.816-.266 0-.531.021-.816.021a21.1 21.1 0 01-3.447-.285 67.554 67.554 0 01-3.441-.774 38.847 38.847 0 01-3.025-.905c-.883-.33-1.566-.574-2.01-.772h-.352v7.043c1.766.506 3.664.948 5.717 1.259 2.053.309 4.063.463 6.029.463.461 0 .902-.023 1.346-.023 5.43-.22 9.514-1.81 12.275-4.768 2.979-3.179 4.457-8.169 4.457-14.969V53.702h-6.38zm-.373 29.23c-1.506 1.237-3.158 2.23-5.035 2.915-1.68.642-3.332.973-4.945 1.038h-.443c-3.354 0-5.783-1.171-7.285-3.488-1.5-2.318-2.252-5.718-2.252-10.156 0-4.702.994-8.301 2.961-10.817 1.742-2.229 4.104-3.487 7.02-3.731.354-.021.705-.044 1.059-.044 1.414 0 2.824.179 4.26.53 1.436.354 2.98.929 4.662 1.745v22.008zm41.349-24.791c-3.27-3.709-7.617-5.563-13.027-5.563h-.043c-5.363.022-9.693 1.876-12.984 5.584-3.289 3.71-4.941 8.921-4.941 15.61 0 6.534 1.588 11.679 4.789 15.476 3.203 3.798 7.574 5.696 13.137 5.696h.043c5.41 0 9.758-1.832 13.027-5.52 3.244-3.665 4.877-8.897 4.877-15.652-.001-6.713-1.634-11.945-4.878-15.631zm-4.947 27.155c-1.896 2.537-4.613 3.818-8.08 3.818h-.043c-3.49 0-6.205-1.302-8.104-3.885-1.9-2.605-2.848-6.425-2.848-11.458 0-5.188.947-9.053 2.848-11.569 1.898-2.517 4.613-3.775 8.104-3.798h.043c3.488 0 6.205 1.26 8.08 3.798 1.9 2.517 2.848 6.381 2.848 11.569 0 5.122-.948 8.962-2.848 11.525zm10.908-49.431c-1.15-1.148-2.543-1.723-4.152-1.723h-.021c-1.615 0-3.002.574-4.15 1.723-1.148 1.125-1.723 2.516-1.723 4.149 0 1.613.574 3.003 1.723 4.15 1.148 1.148 2.535 1.723 4.15 1.723h.021c1.609 0 3.002-.598 4.152-1.723 1.146-1.147 1.721-2.537 1.721-4.15 0-1.633-.574-3.024-1.721-4.149zm-.556 7.77c-.992.993-2.205 1.502-3.596 1.502-1.414 0-2.605-.509-3.6-1.502-.992-.992-1.502-2.206-1.502-3.62 0-1.435.51-2.628 1.502-3.643.994-.993 2.186-1.478 3.6-1.478 1.391 0 2.604.484 3.596 1.478.996 1.015 1.48 2.208 1.48 3.643 0 1.414-.484 2.628-1.48 3.62z"/><path d="M1801.908 39.595c.266-.287.377-.661.377-1.103 0-.354-.047-.619-.176-.84-.111-.221-.311-.396-.598-.553a1.654 1.654 0 00-.75-.264c-.199-.043-.486-.043-.84-.043-.045-.023-.109-.023-.154-.023h-1.9v6.227h1.127V40.59h.818l.109.109 1.832 2.297h1.527l-2.344-2.717c.4-.175.73-.397.972-.684zm-1.656.067c-.111.022-.221.044-.33.044-.088.022-.176.022-.264.022h-.664V37.63h.927c.152 0 .285.021.396.044.133.022.264.067.375.133a.897.897 0 01.289.31c.043.131.066.264.066.441 0 .221-.023.397-.066.529a.804.804 0 01-.266.353c-.11.111-.264.178-.463.222z"/></g><g fill="#FFF"><path d="M1899.314 139.945v-20.17h5.739c1.745 0 3.126.427 4.148 1.279 1.022.854 1.534 1.966 1.534 3.335 0 1.144-.311 2.138-.93 2.982-.619.842-1.472 1.441-2.56 1.798v.057c1.36.16 2.448.674 3.263 1.541.816.867 1.225 1.995 1.225 3.381 0 1.726-.619 3.123-1.856 4.192s-2.798 1.604-4.684 1.604h-5.879zm2.364-18.032v6.513h2.42c1.293 0 2.311-.313 3.051-.935.742-.626 1.112-1.503 1.112-2.639 0-1.959-1.29-2.939-3.868-2.939h-2.715zm0 8.637v7.257h3.207c1.387 0 2.463-.328 3.228-.984.764-.655 1.147-1.557 1.147-2.701 0-2.382-1.623-3.571-4.867-3.571h-2.715zm24.045 9.395h-2.306v-2.278h-.057c-.957 1.743-2.438 2.614-4.444 2.614-3.432 0-5.147-2.044-5.147-6.133v-8.605h2.292v8.242c0 3.037 1.163 4.556 3.488 4.556 1.125 0 2.051-.414 2.777-1.245.728-.829 1.091-1.914 1.091-3.255v-8.298h2.306v14.402zm2.343-.522v-2.474c1.256.928 2.639 1.392 4.148 1.392 2.025 0 3.039-.674 3.039-2.025 0-.385-.088-.71-.26-.978a2.595 2.595 0 00-.705-.709 5.285 5.285 0 00-1.04-.557 66.706 66.706 0 00-1.287-.513c-.639-.255-1.198-.509-1.681-.767s-.887-.55-1.21-.873-.567-.691-.731-1.104-.246-.896-.246-1.448c0-.675.154-1.273.465-1.794.31-.521.721-.956 1.236-1.307a5.721 5.721 0 011.766-.795 7.764 7.764 0 012.047-.269c1.247 0 2.363.215 3.348.647v2.334c-1.061-.693-2.279-1.041-3.658-1.041-.43 0-.819.049-1.167.149a2.86 2.86 0 00-.894.414 1.924 1.924 0 00-.575.641 1.677 1.677 0 00-.204.821c0 .376.068.689.204.942s.334.479.597.676c.264.197.581.375.957.533.375.16.801.334 1.281.521.637.244 1.208.495 1.715.753.506.258.938.548 1.293.871.357.324.631.696.824 1.119.191.422.288.924.288 1.505 0 .712-.157 1.332-.472 1.857-.313.524-.734.959-1.259 1.307s-1.13.605-1.813.773a8.908 8.908 0 01-2.152.253c-1.482.004-2.768-.281-3.854-.854zm13.123-17.538c-.412 0-.764-.141-1.055-.422-.291-.28-.436-.636-.436-1.068 0-.432.145-.789.436-1.076.291-.286.643-.43 1.055-.43.422 0 .78.144 1.077.43.295.287.441.645.441 1.076 0 .412-.146.764-.441 1.055a1.478 1.478 0 01-1.077.435zm1.125 18.06h-2.307v-14.402h2.307v14.402zm15.186 0h-2.308v-8.214c0-3.058-1.116-4.587-3.347-4.587-1.153 0-2.107.436-2.863 1.303-.755.867-1.131 1.962-1.131 3.284v8.214h-2.307v-14.402h2.307v2.39h.057c1.087-1.818 2.662-2.729 4.724-2.729 1.576 0 2.78.509 3.615 1.526.833 1.019 1.253 2.487 1.253 4.409v8.806zm14.652-6.626h-10.169c.037 1.604.47 2.842 1.295 3.714.823.872 1.96 1.308 3.403 1.308 1.621 0 3.112-.534 4.473-1.603v2.166c-1.267.918-2.939 1.377-5.021 1.377-2.036 0-3.635-.654-4.796-1.961-1.165-1.309-1.745-3.147-1.745-5.521 0-2.241.636-4.066 1.906-5.478s2.849-2.118 4.732-2.118 3.343.609 4.374 1.828c1.031 1.221 1.547 2.912 1.547 5.077v1.211zm-2.362-1.955c-.009-1.33-.331-2.366-.964-3.108-.632-.74-1.511-1.111-2.637-1.111-1.088 0-2.012.391-2.771 1.168-.76.779-1.229 1.797-1.406 3.052h7.778zm4.26 8.059v-2.474c1.255.928 2.638 1.392 4.147 1.392 2.026 0 3.037-.674 3.037-2.025 0-.385-.085-.71-.26-.978a2.55 2.55 0 00-.701-.709c-.297-.208-.643-.393-1.041-.557s-.829-.335-1.288-.513a16.796 16.796 0 01-1.68-.767 5.088 5.088 0 01-1.21-.873 3.212 3.212 0 01-.731-1.104c-.164-.412-.246-.896-.246-1.448 0-.675.154-1.273.463-1.794.31-.521.723-.956 1.237-1.307a5.711 5.711 0 011.768-.795 7.738 7.738 0 012.045-.269c1.248 0 2.362.215 3.347.647v2.334c-1.059-.693-2.278-1.041-3.656-1.041-.431 0-.821.049-1.167.149a2.833 2.833 0 00-.893.414c-.25.178-.442.392-.578.641a1.688 1.688 0 00-.203.821c0 .376.068.689.203.942.136.253.335.479.599.676.263.197.581.375.956.533.374.16.802.334 1.279.521a17.64 17.64 0 011.716.753c.507.258.938.548 1.295.871a3.4 3.4 0 01.821 1.119c.193.422.289.924.289 1.505 0 .712-.157 1.332-.471 1.857-.314.524-.735.959-1.26 1.307s-1.128.605-1.813.773c-.684.17-1.4.253-2.151.253-1.483.004-2.766-.281-3.853-.854zm10.781 0v-2.474c1.257.928 2.64 1.392 4.149 1.392 2.024 0 3.037-.674 3.037-2.025 0-.385-.088-.71-.26-.978a2.577 2.577 0 00-.704-.709c-.295-.208-.642-.393-1.04-.557s-.829-.335-1.286-.513c-.641-.255-1.2-.509-1.683-.767s-.886-.55-1.208-.873c-.323-.323-.568-.691-.732-1.104s-.246-.896-.246-1.448c0-.675.153-1.273.464-1.794.31-.521.723-.956 1.237-1.307a5.727 5.727 0 011.767-.795 7.751 7.751 0 012.046-.269c1.248 0 2.364.215 3.348.647v2.334c-1.06-.693-2.28-1.041-3.658-1.041a4.2 4.2 0 00-1.166.149 2.829 2.829 0 00-.894.414 1.92 1.92 0 00-.577.641 1.677 1.677 0 00-.204.821c0 .376.068.689.204.942.137.253.334.479.598.676.264.197.581.375.958.533.375.16.802.334 1.277.521.639.244 1.21.495 1.717.753.506.258.939.548 1.294.871.357.324.631.696.823 1.119.191.422.288.924.288 1.505 0 .712-.157 1.332-.47 1.857-.315.524-.734.959-1.26 1.307s-1.129.605-1.814.773a8.893 8.893 0 01-2.151.253c-1.484.004-2.766-.281-3.854-.854zm22.743-19.648v2.025h-1.967v16.118h1.967v2.026h-6.301v-2.026h1.971V121.8h-1.971v-2.025h6.301zm15.98 2.138h-5.819v18.032h-2.365v-18.032h-5.808v-2.138h13.992v2.138zm-.312 18.341a1.49 1.49 0 01-1.105-.464 1.526 1.526 0 01-.458-1.11c0-.433.152-.807.458-1.12a1.484 1.484 0 011.105-.471c.439 0 .814.158 1.123.471.311.313.465.688.465 1.12 0 .43-.154.801-.465 1.11a1.528 1.528 0 01-1.123.464zm32.659-.309h-2.616l-2.138-5.656h-8.551l-2.013 5.656h-2.628l7.734-20.17h2.446l7.766 20.17zm-5.526-7.779l-3.165-8.593c-.104-.281-.207-.731-.31-1.35h-.056c-.095.572-.202 1.021-.323 1.35l-3.137 8.593h6.991zm9.623 5.697h-.057v2.082h-2.305v-21.323h2.305v9.451h.057c1.134-1.913 2.795-2.869 4.979-2.869 1.847 0 3.293.646 4.338 1.934 1.044 1.29 1.569 3.018 1.569 5.183 0 2.41-.587 4.341-1.758 5.788-1.173 1.448-2.776 2.173-4.811 2.173-1.903-.001-3.342-.805-4.317-2.419zm-.057-5.809v2.012c0 1.191.387 2.201 1.16 3.03.774.831 1.756 1.245 2.947 1.245 1.397 0 2.49-.534 3.284-1.603.792-1.069 1.188-2.556 1.188-4.459 0-1.604-.371-2.859-1.111-3.769-.742-.909-1.744-1.366-3.01-1.366-1.342 0-2.42.468-3.235 1.4s-1.223 2.103-1.223 3.51zm25.293 1.265h-10.17c.039 1.604.469 2.842 1.295 3.714s1.959 1.308 3.404 1.308c1.623 0 3.113-.534 4.471-1.603v2.166c-1.264.918-2.938 1.377-5.02 1.377-2.035 0-3.635-.654-4.797-1.961-1.162-1.309-1.744-3.147-1.744-5.521 0-2.241.636-4.066 1.906-5.478 1.27-1.411 2.848-2.118 4.732-2.118 1.887 0 3.342.609 4.375 1.828 1.031 1.221 1.547 2.912 1.547 5.077v1.211zm-2.363-1.955c-.01-1.33-.33-2.366-.963-3.108-.633-.74-1.512-1.111-2.637-1.111-1.09 0-2.014.391-2.771 1.168-.758.779-1.229 1.797-1.406 3.052h7.777zm12.451-3.488c-.402-.308-.984-.463-1.742-.463-.984 0-1.809.463-2.469 1.393-.662.928-.994 2.193-.994 3.798v7.342h-2.305v-14.402h2.305v2.968h.057c.33-1.013.83-1.803 1.506-2.372.676-.566 1.43-.849 2.264-.849.602 0 1.061.065 1.379.196v2.389zm16.463 0c-.4-.308-.984-.463-1.742-.463-.986 0-1.809.463-2.471 1.393-.658.928-.99 2.193-.99 3.798v7.342h-2.307v-14.402h2.307v2.968h.057c.328-1.013.83-1.803 1.506-2.372.674-.566 1.428-.849 2.264-.849.598 0 1.059.065 1.377.196v2.389zm2.854-5.991c-.412 0-.764-.141-1.055-.422-.291-.28-.436-.636-.436-1.068 0-.432.145-.789.436-1.076.291-.286.643-.43 1.055-.43.422 0 .781.144 1.076.43.295.287.443.645.443 1.076 0 .412-.148.764-.443 1.055a1.474 1.474 0 01-1.076.435zm1.125 18.06h-2.307v-14.402h2.307v14.402zm13.324-.662c-1.107.665-2.42.998-3.938.998-2.057 0-3.713-.669-4.975-2.004-1.26-1.336-1.891-3.068-1.891-5.197 0-2.371.678-4.276 2.041-5.717 1.357-1.438 3.172-2.159 5.439-2.159 1.27 0 2.385.234 3.352.703v2.363c-1.072-.75-2.215-1.126-3.434-1.126-1.473 0-2.678.529-3.621 1.583-.943 1.056-1.414 2.44-1.414 4.156 0 1.689.441 3.02 1.328 3.995.885.974 2.074 1.462 3.566 1.462 1.254 0 2.438-.416 3.545-1.252v2.195zm14.117.662h-2.307v-8.299c0-3.001-1.115-4.502-3.348-4.502-1.125 0-2.072.436-2.842 1.303-.768.867-1.152 1.98-1.152 3.34v8.158h-2.307v-21.323h2.307v9.311h.057c1.105-1.818 2.682-2.729 4.727-2.729 3.242 0 4.865 1.954 4.865 5.865v8.876zm9.691-.14c-.543.3-1.262.449-2.152.449-2.521 0-3.783-1.406-3.783-4.219v-8.523h-2.475v-1.969h2.475v-3.518l2.307-.744v4.262h3.629v1.969h-3.629v8.115c0 .965.164 1.655.492 2.068.328.411.873.617 1.633.617.58 0 1.082-.16 1.504-.478v1.971zm3.319-17.92c-.412 0-.766-.141-1.055-.422-.291-.28-.436-.636-.436-1.068 0-.432.145-.789.436-1.076.289-.286.643-.43 1.055-.43.422 0 .781.144 1.074.43.295.287.445.645.445 1.076 0 .412-.15.764-.445 1.055a1.466 1.466 0 01-1.074.435zm1.125 18.06h-2.307v-14.402h2.307v14.402zm15.859-1.153c0 5.288-2.533 7.931-7.596 7.931-1.781 0-3.336-.337-4.668-1.013v-2.307c1.621.901 3.168 1.351 4.641 1.351 3.543 0 5.314-1.884 5.314-5.654v-1.575h-.055c-1.096 1.84-2.748 2.757-4.951 2.757-1.791 0-3.232-.64-4.324-1.92-1.092-1.279-1.639-2.997-1.639-5.154 0-2.446.59-4.394 1.766-5.835 1.176-1.445 2.785-2.168 4.83-2.168 1.941 0 3.381.779 4.318 2.335h.055v-1.996h2.309v13.248zm-2.308-5.361v-2.122c0-1.144-.387-2.124-1.158-2.938-.773-.816-1.738-1.226-2.893-1.226-1.424 0-2.541.52-3.346 1.555-.807 1.036-1.209 2.487-1.209 4.354 0 1.604.387 2.886 1.16 3.847s1.797 1.441 3.072 1.441c1.295 0 2.348-.458 3.158-1.378s1.216-2.098 1.216-3.533zm6.755 6.823c-.432 0-.799-.155-1.104-.464a1.529 1.529 0 01-.457-1.11c0-.433.152-.807.457-1.12a1.485 1.485 0 011.104-.471c.441 0 .816.158 1.125.471.311.313.465.688.465 1.12 0 .43-.154.801-.465 1.11a1.529 1.529 0 01-1.125.464zm-270.58-83.593l-3.443-3.156c2.895-9.163 8.08-16.493 14.813-22.563l4.593.861c-8.191 6.843-13.884 14.945-15.963 24.858zm35.811 24.881l9.492 4.88c12.406-9.03 19.627-20.753 17.686-37.796l-8.634-4.614c2.893 18.058-6.115 31.216-18.544 37.53zm18.963 9.338l7.484 3.887c11.148-10.819 15.41-23.623 15.809-37.531l-7.751-5.033c.84 16.513-4.878 29.073-15.542 38.677zm-60.666-39.385l-2.299-2.01c3.355-8.013 7.509-14.769 12.807-19.692l3.575.707c-5.915 4.77-10.464 12.009-14.083 20.995zm29.472-22.716l4.038-4.881c9.097-2.163 17.618.089 25.589 6.756l-2.871 6.027c-6.954-7.308-15.607-10.575-26.756-7.902zm10.641 4.26c-3.51-.885-7.264-.617-10.862.551-6.866 2.231-13.181 7.771-16.271 15.123-1.191 2.848-1.788 5.719-1.855 8.413v.971c.178 7.506 4.549 13.755 11.877 15.586 2.031.507 4.131.642 6.249.44 8.522-.839 17.088-7.15 20.862-16.115 1.215-2.849 1.813-5.696 1.877-8.411v-.971c-.178-7.507-4.57-13.755-11.877-15.587zm-5.63 18.192c-.973 2.318-3.069 3.994-5.232 4.458-.817.154-1.634.178-2.407-.021-2.893-.729-4.147-3.886-2.826-7.042.973-2.297 3.048-3.975 5.233-4.438a5.218 5.218 0 012.407.021c2.892.707 4.15 3.888 2.825 7.022zm-3.709 33.181l-4.745 8.633c-12.121-3.113-21.968-8.5-23.734-21.989l3.311-7.639c2.075 12.296 11.216 18.678 25.168 20.995zm85.085 8.985h-6.756V44.033h-6.203l-.044-6.534 13.003-.022zm37.775-18.943v-3.663c0-3.202-.397-5.917-1.171-8.124-.75-2.23-1.854-4.107-3.289-5.631s-3.111-2.671-5.033-3.378c-1.922-.729-4.105-1.081-6.603-1.081-.375 0-.749.022-1.104.043-5.033.222-9.139 2.164-12.34 5.763-3.399 3.863-5.123 9.074-5.123 15.61 0 6.645 1.768 11.742 5.279 15.365 3.022 3.067 7.086 4.835 12.184 5.298.885.064 1.769.11 2.716.11 1.612 0 2.979-.11 4.04-.286 1.063-.199 2.253-.486 3.576-.838.929-.245 1.989-.62 3.156-1.084 1.174-.465 2.167-.86 2.938-1.169v-7.374h-.397c-.551.463-1.236.949-2.074 1.456-.842.529-1.856 1.037-3.09 1.589-1.148.53-2.453.972-3.865 1.304a19.117 19.117 0 01-7 .33c-2.913-.44-5.274-1.611-7.086-3.532-2.34-2.45-3.531-6.027-3.531-10.708h27.817zm-27.818-5.165c.154-1.7.483-3.179 1.014-4.48a11.141 11.141 0 012.297-3.489 11.076 11.076 0 013.421-2.362c1.104-.463 2.386-.729 3.886-.796h.708c1.811 0 3.334.243 4.57.774 1.235.529 2.251 1.303 3.046 2.318.707.903 1.259 2.008 1.635 3.334.396 1.324.616 2.891.66 4.701h-21.237zm62.854-15.587l-15.123 40.137h-6.071l-15.013-40.137h7.307l10.972 30.908 10.885-30.908zm8.677 40.137h-6.758V53.702h6.758v40.137zm.485-46.87h-7.705v-6.998h7.705v6.998zm30.642 6.733l-.373 1.723c-1.547-.904-3.07-1.611-4.594-2.096-1.504-.487-3.313-.752-5.387-.752a15.14 15.14 0 00-6.402 1.412c-2.078.929-3.844 2.252-5.367 3.975-1.566 1.811-2.848 3.995-3.773 6.558-.928 2.582-1.389 5.54-1.389 8.873 0 6.36 1.348 11.239 4.059 14.638 2.717 3.399 6.359 5.101 10.93 5.101.662 0 1.324-.021 1.943-.067 1.789-.153 3.332-.507 4.613-1.059 1.746-.752 3.531-1.921 5.367-3.51v3.531c0 1.657-.18 3.135-.467 4.417a8.767 8.767 0 01-1.631 3.42c-.797.973-1.945 1.745-3.402 2.298-1.256.485-2.738.749-4.48.816-.266 0-.531.021-.816.021a21.1 21.1 0 01-3.447-.285 67.554 67.554 0 01-3.441-.774 38.847 38.847 0 01-3.025-.905c-.883-.33-1.566-.574-2.01-.772h-.352v7.043c1.766.506 3.664.948 5.717 1.259 2.053.309 4.063.463 6.029.463.461 0 .902-.023 1.346-.023 5.43-.22 9.514-1.81 12.275-4.768 2.979-3.179 4.457-8.169 4.457-14.969V53.702h-6.38zm-.373 29.23c-1.506 1.237-3.158 2.23-5.035 2.915-1.68.642-3.332.973-4.945 1.038h-.443c-3.354 0-5.783-1.171-7.285-3.488-1.5-2.318-2.252-5.718-2.252-10.156 0-4.702.994-8.301 2.961-10.817 1.742-2.229 4.104-3.487 7.02-3.731.354-.021.705-.044 1.059-.044 1.414 0 2.824.179 4.26.53 1.436.354 2.98.929 4.662 1.745v22.008zm41.35-24.791c-3.27-3.709-7.617-5.563-13.027-5.563h-.043c-5.363.022-9.693 1.876-12.984 5.584-3.289 3.71-4.941 8.921-4.941 15.61 0 6.534 1.588 11.679 4.789 15.476 3.203 3.798 7.574 5.696 13.137 5.696h.043c5.41 0 9.758-1.832 13.027-5.52 3.244-3.665 4.877-8.897 4.877-15.652-.001-6.713-1.634-11.945-4.878-15.631zm-4.947 27.155c-1.896 2.537-4.613 3.818-8.08 3.818h-.043c-3.49 0-6.205-1.302-8.104-3.885-1.9-2.605-2.848-6.425-2.848-11.458 0-5.188.947-9.053 2.848-11.569 1.898-2.517 4.613-3.775 8.104-3.798h.043c3.488 0 6.205 1.26 8.08 3.798 1.9 2.517 2.848 6.381 2.848 11.569-.001 5.122-.948 8.962-2.848 11.525zm10.908-49.431c-1.15-1.148-2.543-1.723-4.152-1.723h-.021c-1.615 0-3.002.574-4.15 1.723-1.148 1.125-1.723 2.516-1.723 4.149 0 1.613.574 3.003 1.723 4.15 1.148 1.148 2.535 1.723 4.15 1.723h.021c1.609 0 3.002-.598 4.152-1.723 1.146-1.147 1.721-2.537 1.721-4.15 0-1.633-.575-3.024-1.721-4.149zm-.557 7.77c-.992.993-2.205 1.502-3.596 1.502-1.414 0-2.605-.509-3.6-1.502-.992-.992-1.502-2.206-1.502-3.62 0-1.435.51-2.628 1.502-3.643.994-.993 2.186-1.478 3.6-1.478 1.391 0 2.604.484 3.596 1.478.996 1.015 1.48 2.208 1.48 3.643.001 1.414-.484 2.628-1.48 3.62z"/><path d="M2174.42 39.595c.266-.287.377-.661.377-1.103 0-.354-.047-.619-.176-.84-.111-.221-.311-.396-.598-.553a1.654 1.654 0 00-.75-.264c-.199-.043-.486-.043-.84-.043-.045-.023-.109-.023-.154-.023h-1.9v6.227h1.127V40.59h.818l.109.109 1.832 2.297h1.527l-2.344-2.717c.4-.175.73-.397.972-.684zm-1.656.067c-.111.022-.221.044-.33.044-.088.022-.176.022-.264.022h-.664V37.63h.927c.152 0 .285.021.396.044.133.022.264.067.375.133a.897.897 0 01.289.31c.043.131.066.264.066.441 0 .221-.023.397-.066.529a.804.804 0 01-.266.353c-.11.111-.264.178-.463.222z"/></g></svg>