<svg xmlns="http://www.w3.org/2000/svg" viewBox="0 0 90.3 75.7" height="75.7" width="90.3"><style/><path d="M10.2 35.6l-3.4-3.2c2.9-9.2 8.1-16.5 14.8-22.6l4.6.9c-8.2 6.8-13.9 14.9-16 24.9zM46 60.4l9.5 4.9c12.4-9 19.6-20.8 17.7-37.8l-8.6-4.6c2.9 18.1-6.1 31.2-18.5 37.5zm19 9.4l7.5 3.9c11.1-10.8 15.4-23.6 15.8-37.5l-7.7-5c.8 16.5-4.9 29.1-15.5 38.7zM4.3 30.4l-2.3-2c3.4-8 7.5-14.8 12.8-19.7l3.6.7c-5.9 4.8-10.5 12-14.1 21zM33.8 7.7l4-4.9c9.1-2.2 17.6.1 25.6 6.8l-2.9 6C53.5 8.3 44.9 5 33.7 7.7zm10.6 4.2c-3.5-.9-7.3-.6-10.9.6-6.9 2.2-13.2 7.8-16.3 15.1-1.2 2.8-1.8 5.7-1.9 8.4v1c.2 7.5 4.5 13.8 11.9 15.6 2 .5 4.1.6 6.3.4 8.5-.8 17.1-7.2 20.9-16.1 1.2-2.8 1.8-5.7 1.9-8.4v-1c-.2-7.5-4.6-13.8-11.9-15.6zm-5.6 18.2c-1 2.3-3.1 4-5.2 4.5-.8.2-1.6.2-2.4 0-2.9-.7-4.1-3.9-2.8-7 1-2.3 3-4 5.2-4.4.8-.2 1.6-.2 2.4 0 2.9.7 4.2 3.9 2.8 7zm-3.7 33.2l-4.7 8.6c-12.1-3.1-22-8.5-23.7-22l3.3-7.6c2.1 12.3 11.2 18.7 25.2 21z" fill="#fff"/></svg>